<svg xmlns="http://www.w3.org/2000/svg" width="1080" height="1046" viewBox="0 0 1080 1046" font-family="-apple-system,BlinkMacSystemFont,'Segoe UI',Roboto,Helvetica,Arial,sans-serif">
<rect width="1080" height="1046" fill="#ffffff"/>
<text x="138" y="40" font-size="23" font-weight="700" fill="#1d2329">Disk after the agent task - lower is better</text>
<text x="138" y="64" font-size="13.5" fill="#6b7782">Full-history clone footprint vs lazy workspace after the same edit/commit task.</text>
<rect x="138" y="81" width="15" height="15" rx="3" fill="#e4572e"/>
<text x="159" y="93" font-size="13.5" font-weight="600" fill="#1d2329">git clone</text>
<rect x="235" y="81" width="15" height="15" rx="3" fill="#2a9d8f"/>
<text x="256" y="93" font-size="13.5" font-weight="600" fill="#1d2329">git lazy-mount</text>
<line x1="138.0" y1="126" x2="138.0" y2="976" stroke="#e7ebef" stroke-width="1"/>
<text x="138.0" y="999" font-size="12" fill="#6b7782" text-anchor="middle">0 MB</text>
<line x1="336.0" y1="126" x2="336.0" y2="976" stroke="#e7ebef" stroke-width="1"/>
<text x="336.0" y="999" font-size="12" fill="#6b7782" text-anchor="middle">2.0 GB</text>
<line x1="534.0" y1="126" x2="534.0" y2="976" stroke="#e7ebef" stroke-width="1"/>
<text x="534.0" y="999" font-size="12" fill="#6b7782" text-anchor="middle">3.9 GB</text>
<line x1="732.0" y1="126" x2="732.0" y2="976" stroke="#e7ebef" stroke-width="1"/>
<text x="732.0" y="999" font-size="12" fill="#6b7782" text-anchor="middle">5.9 GB</text>
<line x1="930.0" y1="126" x2="930.0" y2="976" stroke="#e7ebef" stroke-width="1"/>
<text x="930.0" y="999" font-size="12" fill="#6b7782" text-anchor="middle">7.8 GB</text>
<line x1="138" y1="126" x2="138" y2="976" stroke="#cfd6dc" stroke-width="1"/>
<text x="126" y="160.0" font-size="13.5" font-weight="600" fill="#1d2329" text-anchor="end">llvm</text>
<rect x="138" y="140" width="631.6" height="14" rx="2.5" fill="#e4572e"/>
<text x="776.6" y="151" font-size="12.5" font-weight="700" fill="#e4572e">6.2 GB</text>
<rect x="138" y="158" width="28.4" height="14" rx="2.5" fill="#2a9d8f"/>
<text x="173.4" y="169" font-size="12.5" font-weight="700" fill="#2a9d8f">287 MB</text>
<text x="126" y="202.0" font-size="13.5" font-weight="600" fill="#1d2329" text-anchor="end">typescript</text>
<rect x="138" y="182" width="308.9" height="14" rx="2.5" fill="#e4572e"/>
<text x="453.9" y="193" font-size="12.5" font-weight="700" fill="#e4572e">3.0 GB</text>
<rect x="138" y="200" width="3.5" height="14" rx="2.5" fill="#2a9d8f"/>
<text x="148.5" y="211" font-size="12.5" font-weight="700" fill="#2a9d8f">35 MB</text>
<text x="126" y="244.0" font-size="13.5" font-weight="600" fill="#1d2329" text-anchor="end">node</text>
<rect x="138" y="224" width="213.6" height="14" rx="2.5" fill="#e4572e"/>
<text x="358.6" y="235" font-size="12.5" font-weight="700" fill="#e4572e">2.1 GB</text>
<rect x="138" y="242" width="7.9" height="14" rx="2.5" fill="#2a9d8f"/>
<text x="152.9" y="253" font-size="12.5" font-weight="700" fill="#2a9d8f">80 MB</text>
<text x="126" y="286.0" font-size="13.5" font-weight="600" fill="#1d2329" text-anchor="end">godot</text>
<rect x="138" y="266" width="213.1" height="14" rx="2.5" fill="#e4572e"/>
<text x="358.1" y="277" font-size="12.5" font-weight="700" fill="#e4572e">2.1 GB</text>
<rect x="138" y="284" width="5.0" height="14" rx="2.5" fill="#2a9d8f"/>
<text x="150.0" y="295" font-size="12.5" font-weight="700" fill="#2a9d8f">51 MB</text>
<text x="126" y="328.0" font-size="13.5" font-weight="600" fill="#1d2329" text-anchor="end">elasticsearch</text>
<rect x="138" y="308" width="211.7" height="14" rx="2.5" fill="#e4572e"/>
<text x="356.7" y="319" font-size="12.5" font-weight="700" fill="#e4572e">2.1 GB</text>
<rect x="138" y="326" width="11.1" height="14" rx="2.5" fill="#2a9d8f"/>
<text x="156.1" y="337" font-size="12.5" font-weight="700" fill="#2a9d8f">112 MB</text>
<text x="126" y="370.0" font-size="13.5" font-weight="600" fill="#1d2329" text-anchor="end">tensorflow</text>
<rect x="138" y="350" width="176.8" height="14" rx="2.5" fill="#e4572e"/>
<text x="321.8" y="361" font-size="12.5" font-weight="700" fill="#e4572e">1.7 GB</text>
<rect x="138" y="368" width="7.3" height="14" rx="2.5" fill="#2a9d8f"/>
<text x="152.3" y="379" font-size="12.5" font-weight="700" fill="#2a9d8f">74 MB</text>
<text x="126" y="412.0" font-size="13.5" font-weight="600" fill="#1d2329" text-anchor="end">pytorch</text>
<rect x="138" y="392" width="160.6" height="14" rx="2.5" fill="#e4572e"/>
<text x="305.6" y="403" font-size="12.5" font-weight="700" fill="#e4572e">1.6 GB</text>
<rect x="138" y="410" width="6.9" height="14" rx="2.5" fill="#2a9d8f"/>
<text x="151.9" y="421" font-size="12.5" font-weight="700" fill="#2a9d8f">70 MB</text>
<text x="126" y="454.0" font-size="13.5" font-weight="600" fill="#1d2329" text-anchor="end">swift</text>
<rect x="138" y="434" width="156.9" height="14" rx="2.5" fill="#e4572e"/>
<text x="301.9" y="445" font-size="12.5" font-weight="700" fill="#e4572e">1.5 GB</text>
<rect x="138" y="452" width="10.2" height="14" rx="2.5" fill="#2a9d8f"/>
<text x="155.2" y="463" font-size="12.5" font-weight="700" fill="#2a9d8f">103 MB</text>
<text x="126" y="496.0" font-size="13.5" font-weight="600" fill="#1d2329" text-anchor="end">vscode</text>
<rect x="138" y="476" width="154.5" height="14" rx="2.5" fill="#e4572e"/>
<text x="299.5" y="487" font-size="12.5" font-weight="700" fill="#e4572e">1.5 GB</text>
<rect x="138" y="494" width="9.4" height="14" rx="2.5" fill="#2a9d8f"/>
<text x="154.4" y="505" font-size="12.5" font-weight="700" fill="#2a9d8f">95 MB</text>
<text x="126" y="538.0" font-size="13.5" font-weight="600" fill="#1d2329" text-anchor="end">kubernetes</text>
<rect x="138" y="518" width="153.3" height="14" rx="2.5" fill="#e4572e"/>
<text x="298.3" y="529" font-size="12.5" font-weight="700" fill="#e4572e">1.5 GB</text>
<rect x="138" y="536" width="7.2" height="14" rx="2.5" fill="#2a9d8f"/>
<text x="152.2" y="547" font-size="12.5" font-weight="700" fill="#2a9d8f">73 MB</text>
<text x="126" y="580.0" font-size="13.5" font-weight="600" fill="#1d2329" text-anchor="end">rust</text>
<rect x="138" y="560" width="121.7" height="14" rx="2.5" fill="#e4572e"/>
<text x="266.7" y="571" font-size="12.5" font-weight="700" fill="#e4572e">1.2 GB</text>
<rect x="138" y="578" width="14.4" height="14" rx="2.5" fill="#2a9d8f"/>
<text x="159.4" y="589" font-size="12.5" font-weight="700" fill="#2a9d8f">145 MB</text>
<text x="126" y="622.0" font-size="13.5" font-weight="600" fill="#1d2329" text-anchor="end">react</text>
<rect x="138" y="602" width="101.3" height="14" rx="2.5" fill="#e4572e"/>
<text x="246.3" y="613" font-size="12.5" font-weight="700" fill="#e4572e">1023 MB</text>
<rect x="138" y="620" width="2.1" height="14" rx="2.5" fill="#2a9d8f"/>
<text x="147.1" y="631" font-size="12.5" font-weight="700" fill="#2a9d8f">21 MB</text>
<text x="126" y="664.0" font-size="13.5" font-weight="600" fill="#1d2329" text-anchor="end">cpython</text>
<rect x="138" y="644" width="97.8" height="14" rx="2.5" fill="#e4572e"/>
<text x="242.8" y="655" font-size="12.5" font-weight="700" fill="#e4572e">988 MB</text>
<rect x="138" y="662" width="8.4" height="14" rx="2.5" fill="#2a9d8f"/>
<text x="153.4" y="673" font-size="12.5" font-weight="700" fill="#2a9d8f">85 MB</text>
<text x="126" y="706.0" font-size="13.5" font-weight="600" fill="#1d2329" text-anchor="end">angular</text>
<rect x="138" y="686" width="74.8" height="14" rx="2.5" fill="#e4572e"/>
<text x="219.8" y="697" font-size="12.5" font-weight="700" fill="#e4572e">756 MB</text>
<rect x="138" y="704" width="2.3" height="14" rx="2.5" fill="#2a9d8f"/>
<text x="147.3" y="715" font-size="12.5" font-weight="700" fill="#2a9d8f">23 MB</text>
<text x="126" y="748.0" font-size="13.5" font-weight="600" fill="#1d2329" text-anchor="end">go</text>
<rect x="138" y="728" width="59.3" height="14" rx="2.5" fill="#e4572e"/>
<text x="204.3" y="739" font-size="12.5" font-weight="700" fill="#e4572e">599 MB</text>
<rect x="138" y="746" width="3.6" height="14" rx="2.5" fill="#2a9d8f"/>
<text x="148.6" y="757" font-size="12.5" font-weight="700" fill="#2a9d8f">36 MB</text>
<text x="126" y="790.0" font-size="13.5" font-weight="600" fill="#1d2329" text-anchor="end">flutter</text>
<rect x="138" y="770" width="57.2" height="14" rx="2.5" fill="#e4572e"/>
<text x="202.2" y="781" font-size="12.5" font-weight="700" fill="#e4572e">578 MB</text>
<rect x="138" y="788" width="5.6" height="14" rx="2.5" fill="#2a9d8f"/>
<text x="150.6" y="799" font-size="12.5" font-weight="700" fill="#2a9d8f">57 MB</text>
<text x="126" y="832.0" font-size="13.5" font-weight="600" fill="#1d2329" text-anchor="end">deno</text>
<rect x="138" y="812" width="31.4" height="14" rx="2.5" fill="#e4572e"/>
<text x="176.4" y="823" font-size="12.5" font-weight="700" fill="#e4572e">317 MB</text>
<rect x="138" y="830" width="2.0" height="14" rx="2.5" fill="#2a9d8f"/>
<text x="147.0" y="841" font-size="12.5" font-weight="700" fill="#2a9d8f">20 MB</text>
<text x="126" y="874.0" font-size="13.5" font-weight="600" fill="#1d2329" text-anchor="end">redis</text>
<rect x="138" y="854" width="23.0" height="14" rx="2.5" fill="#e4572e"/>
<text x="168.0" y="865" font-size="12.5" font-weight="700" fill="#e4572e">232 MB</text>
<rect x="138" y="872" width="2.0" height="14" rx="2.5" fill="#2a9d8f"/>
<text x="147.0" y="883" font-size="12.5" font-weight="700" fill="#2a9d8f">10 MB</text>
<text x="126" y="916.0" font-size="13.5" font-weight="600" fill="#1d2329" text-anchor="end">svelte</text>
<rect x="138" y="896" width="13.2" height="14" rx="2.5" fill="#e4572e"/>
<text x="158.2" y="907" font-size="12.5" font-weight="700" fill="#e4572e">133 MB</text>
<rect x="138" y="914" width="2.0" height="14" rx="2.5" fill="#2a9d8f"/>
<text x="147.0" y="925" font-size="12.5" font-weight="700" fill="#2a9d8f">9 MB</text>
<text x="126" y="958.0" font-size="13.5" font-weight="600" fill="#1d2329" text-anchor="end">vue</text>
<rect x="138" y="938" width="5.0" height="14" rx="2.5" fill="#e4572e"/>
<text x="150.0" y="949" font-size="12.5" font-weight="700" fill="#e4572e">51 MB</text>
<rect x="138" y="956" width="2.0" height="14" rx="2.5" fill="#2a9d8f"/>
<text x="147.0" y="967" font-size="12.5" font-weight="700" fill="#2a9d8f">5 MB</text>
<text x="138" y="1021" font-size="11.5" fill="#6b7782">x-axis shows MiB/GB on disk; lazy includes fetched objects, cache, and overlay after commit.</text>
</svg>