<svg xmlns="http://www.w3.org/2000/svg" width="1080" height="1046" viewBox="0 0 1080 1046" font-family="-apple-system,BlinkMacSystemFont,'Segoe UI',Roboto,Helvetica,Arial,sans-serif">
<rect width="1080" height="1046" fill="#ffffff"/>
<text x="138" y="40" font-size="23" font-weight="700" fill="#1d2329">Agent task wall-clock - lower is better</text>
<text x="138" y="64" font-size="13.5" fill="#6b7782">Fresh Firecracker microVM per repo; setup plus one Claude code-search/edit/commit task.</text>
<rect x="138" y="81" width="15" height="15" rx="3" fill="#e4572e"/>
<text x="159" y="93" font-size="13.5" font-weight="600" fill="#1d2329">clone setup</text>
<rect x="249" y="81" width="15" height="15" rx="3" fill="#f2a07f"/>
<text x="270" y="93" font-size="13.5" font-weight="600" fill="#1d2329">full agent</text>
<rect x="353" y="81" width="15" height="15" rx="3" fill="#2a9d8f"/>
<text x="374" y="93" font-size="13.5" font-weight="600" fill="#1d2329">lazy mount</text>
<rect x="457" y="81" width="15" height="15" rx="3" fill="#94d2bd"/>
<text x="478" y="93" font-size="13.5" font-weight="600" fill="#1d2329">lazy agent</text>
<line x1="138.0" y1="126" x2="138.0" y2="976" stroke="#e7ebef" stroke-width="1"/>
<text x="138.0" y="999" font-size="12" fill="#6b7782" text-anchor="middle">0</text>
<line x1="296.4" y1="126" x2="296.4" y2="976" stroke="#e7ebef" stroke-width="1"/>
<text x="296.4" y="999" font-size="12" fill="#6b7782" text-anchor="middle">100</text>
<line x1="454.8" y1="126" x2="454.8" y2="976" stroke="#e7ebef" stroke-width="1"/>
<text x="454.8" y="999" font-size="12" fill="#6b7782" text-anchor="middle">200</text>
<line x1="613.2" y1="126" x2="613.2" y2="976" stroke="#e7ebef" stroke-width="1"/>
<text x="613.2" y="999" font-size="12" fill="#6b7782" text-anchor="middle">300</text>
<line x1="771.6" y1="126" x2="771.6" y2="976" stroke="#e7ebef" stroke-width="1"/>
<text x="771.6" y="999" font-size="12" fill="#6b7782" text-anchor="middle">400</text>
<line x1="930.0" y1="126" x2="930.0" y2="976" stroke="#e7ebef" stroke-width="1"/>
<text x="930.0" y="999" font-size="12" fill="#6b7782" text-anchor="middle">500</text>
<line x1="138" y1="126" x2="138" y2="976" stroke="#cfd6dc" stroke-width="1"/>
<text x="126" y="160.0" font-size="13.5" font-weight="600" fill="#1d2329" text-anchor="end">llvm</text>
<rect x="138" y="140" width="677.2" height="14" rx="2.5" fill="#e4572e"/>
<rect x="815.2" y="140" width="39.3" height="14" rx="2.5" fill="#f2a07f"/>
<text x="861.4" y="151" font-size="12.5" font-weight="700" fill="#1d2329">452.3 s</text>
<rect x="138" y="158" width="24.9" height="14" rx="2.5" fill="#2a9d8f"/>
<rect x="162.9" y="158" width="46.6" height="14" rx="2.5" fill="#94d2bd"/>
<text x="216.4" y="169" font-size="12.5" font-weight="700" fill="#1d2329">45.1 s</text>
<text x="126" y="202.0" font-size="13.5" font-weight="600" fill="#1d2329" text-anchor="end">typescript</text>
<rect x="138" y="182" width="318.2" height="14" rx="2.5" fill="#e4572e"/>
<rect x="456.2" y="182" width="181.5" height="14" rx="2.5" fill="#f2a07f"/>
<text x="644.8" y="193" font-size="12.5" font-weight="700" fill="#1d2329">315.5 s</text>
<rect x="138" y="200" width="3.5" height="14" rx="2.5" fill="#2a9d8f"/>
<rect x="141.5" y="200" width="225.1" height="14" rx="2.5" fill="#94d2bd"/>
<text x="373.6" y="211" font-size="12.5" font-weight="700" fill="#1d2329">144.3 s</text>
<text x="126" y="244.0" font-size="13.5" font-weight="600" fill="#1d2329" text-anchor="end">cpython</text>
<rect x="138" y="224" width="108.0" height="14" rx="2.5" fill="#e4572e"/>
<rect x="246.0" y="224" width="191.5" height="14" rx="2.5" fill="#f2a07f"/>
<text x="444.5" y="235" font-size="12.5" font-weight="700" fill="#1d2329">189.1 s</text>
<rect x="138" y="242" width="33.9" height="14" rx="2.5" fill="#2a9d8f"/>
<rect x="171.9" y="242" width="119.6" height="14" rx="2.5" fill="#94d2bd"/>
<text x="298.5" y="253" font-size="12.5" font-weight="700" fill="#1d2329">96.9 s</text>
<text x="126" y="286.0" font-size="13.5" font-weight="600" fill="#1d2329" text-anchor="end">godot</text>
<rect x="138" y="266" width="165.7" height="14" rx="2.5" fill="#e4572e"/>
<rect x="303.7" y="266" width="130.4" height="14" rx="2.5" fill="#f2a07f"/>
<text x="441.0" y="277" font-size="12.5" font-weight="700" fill="#1d2329">186.9 s</text>
<rect x="138" y="284" width="4.6" height="14" rx="2.5" fill="#2a9d8f"/>
<rect x="142.6" y="284" width="89.5" height="14" rx="2.5" fill="#94d2bd"/>
<text x="239.1" y="295" font-size="12.5" font-weight="700" fill="#1d2329">59.4 s</text>
<text x="126" y="328.0" font-size="13.5" font-weight="600" fill="#1d2329" text-anchor="end">pytorch</text>
<rect x="138" y="308" width="161.6" height="14" rx="2.5" fill="#e4572e"/>
<rect x="299.6" y="308" width="127.8" height="14" rx="2.5" fill="#f2a07f"/>
<text x="434.4" y="319" font-size="12.5" font-weight="700" fill="#1d2329">182.7 s</text>
<rect x="138" y="326" width="7.9" height="14" rx="2.5" fill="#2a9d8f"/>
<rect x="145.9" y="326" width="95.0" height="14" rx="2.5" fill="#94d2bd"/>
<text x="248.0" y="337" font-size="12.5" font-weight="700" fill="#1d2329">65 s</text>
<text x="126" y="370.0" font-size="13.5" font-weight="600" fill="#1d2329" text-anchor="end">elasticsearch</text>
<rect x="138" y="350" width="188.2" height="14" rx="2.5" fill="#e4572e"/>
<rect x="326.2" y="350" width="67.5" height="14" rx="2.5" fill="#f2a07f"/>
<text x="400.7" y="361" font-size="12.5" font-weight="700" fill="#1d2329">161.4 s</text>
<rect x="138" y="368" width="9.0" height="14" rx="2.5" fill="#2a9d8f"/>
<rect x="147.0" y="368" width="51.0" height="14" rx="2.5" fill="#94d2bd"/>
<text x="205.0" y="379" font-size="12.5" font-weight="700" fill="#1d2329">37.9 s</text>
<text x="126" y="412.0" font-size="13.5" font-weight="600" fill="#1d2329" text-anchor="end">tensorflow</text>
<rect x="138" y="392" width="160.3" height="14" rx="2.5" fill="#e4572e"/>
<rect x="298.3" y="392" width="89.5" height="14" rx="2.5" fill="#f2a07f"/>
<text x="394.8" y="403" font-size="12.5" font-weight="700" fill="#1d2329">157.7 s</text>
<rect x="138" y="410" width="7.0" height="14" rx="2.5" fill="#2a9d8f"/>
<rect x="145.0" y="410" width="154.4" height="14" rx="2.5" fill="#94d2bd"/>
<text x="306.4" y="421" font-size="12.5" font-weight="700" fill="#1d2329">101.9 s</text>
<text x="126" y="454.0" font-size="13.5" font-weight="600" fill="#1d2329" text-anchor="end">node</text>
<rect x="138" y="434" width="172.3" height="14" rx="2.5" fill="#e4572e"/>
<rect x="310.3" y="434" width="59.9" height="14" rx="2.5" fill="#f2a07f"/>
<text x="377.2" y="445" font-size="12.5" font-weight="700" fill="#1d2329">146.6 s</text>
<rect x="138" y="452" width="14.6" height="14" rx="2.5" fill="#2a9d8f"/>
<rect x="152.6" y="452" width="43.1" height="14" rx="2.5" fill="#94d2bd"/>
<text x="202.7" y="463" font-size="12.5" font-weight="700" fill="#1d2329">36.4 s</text>
<text x="126" y="496.0" font-size="13.5" font-weight="600" fill="#1d2329" text-anchor="end">swift</text>
<rect x="138" y="476" width="173.4" height="14" rx="2.5" fill="#e4572e"/>
<rect x="311.4" y="476" width="41.2" height="14" rx="2.5" fill="#f2a07f"/>
<text x="359.6" y="487" font-size="12.5" font-weight="700" fill="#1d2329">135.5 s</text>
<rect x="138" y="494" width="18.4" height="14" rx="2.5" fill="#2a9d8f"/>
<rect x="156.4" y="494" width="38.2" height="14" rx="2.5" fill="#94d2bd"/>
<text x="201.5" y="505" font-size="12.5" font-weight="700" fill="#1d2329">35.7 s</text>
<text x="126" y="538.0" font-size="13.5" font-weight="600" fill="#1d2329" text-anchor="end">rust</text>
<rect x="138" y="518" width="160.6" height="14" rx="2.5" fill="#e4572e"/>
<rect x="298.6" y="518" width="51.0" height="14" rx="2.5" fill="#f2a07f"/>
<text x="356.6" y="529" font-size="12.5" font-weight="700" fill="#1d2329">133.6 s</text>
<rect x="138" y="536" width="12.2" height="14" rx="2.5" fill="#2a9d8f"/>
<rect x="150.2" y="536" width="25.0" height="14" rx="2.5" fill="#94d2bd"/>
<text x="182.2" y="547" font-size="12.5" font-weight="700" fill="#1d2329">23.5 s</text>
<text x="126" y="580.0" font-size="13.5" font-weight="600" fill="#1d2329" text-anchor="end">vscode</text>
<rect x="138" y="560" width="156.3" height="14" rx="2.5" fill="#e4572e"/>
<rect x="294.3" y="560" width="50.4" height="14" rx="2.5" fill="#f2a07f"/>
<text x="351.7" y="571" font-size="12.5" font-weight="700" fill="#1d2329">130.5 s</text>
<rect x="138" y="578" width="10.0" height="14" rx="2.5" fill="#2a9d8f"/>
<rect x="148.0" y="578" width="77.1" height="14" rx="2.5" fill="#94d2bd"/>
<text x="232.1" y="589" font-size="12.5" font-weight="700" fill="#1d2329">55 s</text>
<text x="126" y="622.0" font-size="13.5" font-weight="600" fill="#1d2329" text-anchor="end">kubernetes</text>
<rect x="138" y="602" width="149.8" height="14" rx="2.5" fill="#e4572e"/>
<rect x="287.8" y="602" width="40.4" height="14" rx="2.5" fill="#f2a07f"/>
<text x="335.2" y="613" font-size="12.5" font-weight="700" fill="#1d2329">120.1 s</text>
<rect x="138" y="620" width="8.2" height="14" rx="2.5" fill="#2a9d8f"/>
<rect x="146.2" y="620" width="25.3" height="14" rx="2.5" fill="#94d2bd"/>
<text x="178.6" y="631" font-size="12.5" font-weight="700" fill="#1d2329">21.2 s</text>
<text x="126" y="664.0" font-size="13.5" font-weight="600" fill="#1d2329" text-anchor="end">react</text>
<rect x="138" y="644" width="116.3" height="14" rx="2.5" fill="#e4572e"/>
<rect x="254.3" y="644" width="31.2" height="14" rx="2.5" fill="#f2a07f"/>
<text x="292.5" y="655" font-size="12.5" font-weight="700" fill="#1d2329">93.1 s</text>
<rect x="138" y="662" width="2.7" height="14" rx="2.5" fill="#2a9d8f"/>
<rect x="140.7" y="662" width="25.8" height="14" rx="2.5" fill="#94d2bd"/>
<text x="173.5" y="673" font-size="12.5" font-weight="700" fill="#1d2329">18 s</text>
<text x="126" y="706.0" font-size="13.5" font-weight="600" fill="#1d2329" text-anchor="end">flutter</text>
<rect x="138" y="686" width="66.4" height="14" rx="2.5" fill="#e4572e"/>
<rect x="204.4" y="686" width="17.4" height="14" rx="2.5" fill="#f2a07f"/>
<text x="228.8" y="697" font-size="12.5" font-weight="700" fill="#1d2329">52.9 s</text>
<rect x="138" y="704" width="6.7" height="14" rx="2.5" fill="#2a9d8f"/>
<rect x="144.7" y="704" width="17.9" height="14" rx="2.5" fill="#94d2bd"/>
<text x="169.6" y="715" font-size="12.5" font-weight="700" fill="#1d2329">15.5 s</text>
<text x="126" y="748.0" font-size="13.5" font-weight="600" fill="#1d2329" text-anchor="end">angular</text>
<rect x="138" y="728" width="65.4" height="14" rx="2.5" fill="#e4572e"/>
<rect x="203.4" y="728" width="17.3" height="14" rx="2.5" fill="#f2a07f"/>
<text x="227.7" y="739" font-size="12.5" font-weight="700" fill="#1d2329">52.2 s</text>
<rect x="138" y="746" width="3.3" height="14" rx="2.5" fill="#2a9d8f"/>
<rect x="141.3" y="746" width="14.6" height="14" rx="2.5" fill="#94d2bd"/>
<text x="162.9" y="757" font-size="12.5" font-weight="700" fill="#1d2329">11.3 s</text>
<text x="126" y="790.0" font-size="13.5" font-weight="600" fill="#1d2329" text-anchor="end">go</text>
<rect x="138" y="770" width="51.6" height="14" rx="2.5" fill="#e4572e"/>
<rect x="189.6" y="770" width="26.3" height="14" rx="2.5" fill="#f2a07f"/>
<text x="222.9" y="781" font-size="12.5" font-weight="700" fill="#1d2329">49.2 s</text>
<rect x="138" y="788" width="4.1" height="14" rx="2.5" fill="#2a9d8f"/>
<rect x="142.1" y="788" width="19.0" height="14" rx="2.5" fill="#94d2bd"/>
<text x="168.1" y="799" font-size="12.5" font-weight="700" fill="#1d2329">14.6 s</text>
<text x="126" y="832.0" font-size="13.5" font-weight="600" fill="#1d2329" text-anchor="end">deno</text>
<rect x="138" y="812" width="27.9" height="14" rx="2.5" fill="#e4572e"/>
<rect x="165.9" y="812" width="21.7" height="14" rx="2.5" fill="#f2a07f"/>
<text x="194.6" y="823" font-size="12.5" font-weight="700" fill="#1d2329">31.3 s</text>
<rect x="138" y="830" width="3.5" height="14" rx="2.5" fill="#2a9d8f"/>
<rect x="141.5" y="830" width="21.5" height="14" rx="2.5" fill="#94d2bd"/>
<text x="170.0" y="841" font-size="12.5" font-weight="700" fill="#1d2329">15.8 s</text>
<text x="126" y="874.0" font-size="13.5" font-weight="600" fill="#1d2329" text-anchor="end">redis</text>
<rect x="138" y="854" width="20.1" height="14" rx="2.5" fill="#e4572e"/>
<rect x="158.1" y="854" width="19.2" height="14" rx="2.5" fill="#f2a07f"/>
<text x="184.3" y="865" font-size="12.5" font-weight="700" fill="#1d2329">24.8 s</text>
<rect x="138" y="872" width="2.1" height="14" rx="2.5" fill="#2a9d8f"/>
<rect x="140.1" y="872" width="18.4" height="14" rx="2.5" fill="#94d2bd"/>
<text x="165.4" y="883" font-size="12.5" font-weight="700" fill="#1d2329">12.9 s</text>
<text x="126" y="916.0" font-size="13.5" font-weight="600" fill="#1d2329" text-anchor="end">svelte</text>
<rect x="138" y="896" width="12.7" height="14" rx="2.5" fill="#e4572e"/>
<rect x="150.7" y="896" width="19.0" height="14" rx="2.5" fill="#f2a07f"/>
<text x="176.7" y="907" font-size="12.5" font-weight="700" fill="#1d2329">20 s</text>
<rect x="138" y="914" width="2.2" height="14" rx="2.5" fill="#2a9d8f"/>
<rect x="140.2" y="914" width="22.7" height="14" rx="2.5" fill="#94d2bd"/>
<text x="169.9" y="925" font-size="12.5" font-weight="700" fill="#1d2329">15.7 s</text>
<text x="126" y="958.0" font-size="13.5" font-weight="600" fill="#1d2329" text-anchor="end">vue</text>
<rect x="138" y="938" width="5.9" height="14" rx="2.5" fill="#e4572e"/>
<rect x="143.9" y="938" width="16.6" height="14" rx="2.5" fill="#f2a07f"/>
<text x="167.5" y="949" font-size="12.5" font-weight="700" fill="#1d2329">14.2 s</text>
<rect x="138" y="956" width="2.0" height="14" rx="2.5" fill="#2a9d8f"/>
<rect x="140.0" y="956" width="13.5" height="14" rx="2.5" fill="#94d2bd"/>
<text x="160.5" y="967" font-size="12.5" font-weight="700" fill="#1d2329">9.8 s</text>
<text x="138" y="1021" font-size="11.5" fill="#6b7782">x-axis in seconds; each pair is full clone+agent above lazy mount+agent.</text>
</svg>