<svg xmlns="http://www.w3.org/2000/svg" width="1080" height="1046" viewBox="0 0 1080 1046" font-family="-apple-system,BlinkMacSystemFont,'Segoe UI',Roboto,Helvetica,Arial,sans-serif">
<rect width="1080" height="1046" fill="#ffffff"/>
<text x="138" y="40" font-size="23" font-weight="700" fill="#1d2329">Agent task wall-clock - lower is better</text>
<text x="138" y="64" font-size="13.5" fill="#6b7782">Fresh Firecracker microVM per repo; setup plus one Claude code-search/edit/commit task.</text>
<rect x="138" y="81" width="15" height="15" rx="3" fill="#e4572e"/>
<text x="159" y="93" font-size="13.5" font-weight="600" fill="#1d2329">clone setup</text>
<rect x="249" y="81" width="15" height="15" rx="3" fill="#f2a07f"/>
<text x="270" y="93" font-size="13.5" font-weight="600" fill="#1d2329">full agent</text>
<rect x="353" y="81" width="15" height="15" rx="3" fill="#2a9d8f"/>
<text x="374" y="93" font-size="13.5" font-weight="600" fill="#1d2329">lazy mount</text>
<rect x="457" y="81" width="15" height="15" rx="3" fill="#94d2bd"/>
<text x="478" y="93" font-size="13.5" font-weight="600" fill="#1d2329">lazy agent</text>
<line x1="138.0" y1="126" x2="138.0" y2="976" stroke="#e7ebef" stroke-width="1"/>
<text x="138.0" y="999" font-size="12" fill="#6b7782" text-anchor="middle">0</text>
<line x1="296.4" y1="126" x2="296.4" y2="976" stroke="#e7ebef" stroke-width="1"/>
<text x="296.4" y="999" font-size="12" fill="#6b7782" text-anchor="middle">100</text>
<line x1="454.8" y1="126" x2="454.8" y2="976" stroke="#e7ebef" stroke-width="1"/>
<text x="454.8" y="999" font-size="12" fill="#6b7782" text-anchor="middle">200</text>
<line x1="613.2" y1="126" x2="613.2" y2="976" stroke="#e7ebef" stroke-width="1"/>
<text x="613.2" y="999" font-size="12" fill="#6b7782" text-anchor="middle">300</text>
<line x1="771.6" y1="126" x2="771.6" y2="976" stroke="#e7ebef" stroke-width="1"/>
<text x="771.6" y="999" font-size="12" fill="#6b7782" text-anchor="middle">400</text>
<line x1="930.0" y1="126" x2="930.0" y2="976" stroke="#e7ebef" stroke-width="1"/>
<text x="930.0" y="999" font-size="12" fill="#6b7782" text-anchor="middle">500</text>
<line x1="138" y1="126" x2="138" y2="976" stroke="#cfd6dc" stroke-width="1"/>
<text x="126" y="160.0" font-size="13.5" font-weight="600" fill="#1d2329" text-anchor="end">llvm</text>
<rect x="138" y="140" width="643.1" height="14" rx="2.5" fill="#e4572e"/>
<rect x="781.1" y="140" width="37.5" height="14" rx="2.5" fill="#f2a07f"/>
<text x="825.6" y="151" font-size="12.5" font-weight="700" fill="#1d2329">429.7 s</text>
<rect x="138" y="158" width="23.0" height="14" rx="2.5" fill="#2a9d8f"/>
<rect x="161.0" y="158" width="91.1" height="14" rx="2.5" fill="#94d2bd"/>
<text x="259.0" y="169" font-size="12.5" font-weight="700" fill="#1d2329">72 s</text>
<text x="126" y="202.0" font-size="13.5" font-weight="600" fill="#1d2329" text-anchor="end">typescript</text>
<rect x="138" y="182" width="331.7" height="14" rx="2.5" fill="#e4572e"/>
<rect x="469.7" y="182" width="300.8" height="14" rx="2.5" fill="#f2a07f"/>
<text x="777.5" y="193" font-size="12.5" font-weight="700" fill="#1d2329">399.3 s</text>
<rect x="138" y="200" width="3.3" height="14" rx="2.5" fill="#2a9d8f"/>
<rect x="141.3" y="200" width="314.7" height="14" rx="2.5" fill="#94d2bd"/>
<text x="463.1" y="211" font-size="12.5" font-weight="700" fill="#1d2329">200.8 s</text>
<text x="126" y="244.0" font-size="13.5" font-weight="600" fill="#1d2329" text-anchor="end">pytorch</text>
<rect x="138" y="224" width="257.1" height="14" rx="2.5" fill="#e4572e"/>
<rect x="395.1" y="224" width="205.8" height="14" rx="2.5" fill="#f2a07f"/>
<text x="607.8" y="235" font-size="12.5" font-weight="700" fill="#1d2329">292.2 s</text>
<rect x="138" y="242" width="8.4" height="14" rx="2.5" fill="#2a9d8f"/>
<rect x="146.4" y="242" width="270.1" height="14" rx="2.5" fill="#94d2bd"/>
<text x="423.5" y="253" font-size="12.5" font-weight="700" fill="#1d2329">175.8 s</text>
<text x="126" y="286.0" font-size="13.5" font-weight="600" fill="#1d2329" text-anchor="end">elasticsearch</text>
<rect x="138" y="266" width="170.0" height="14" rx="2.5" fill="#e4572e"/>
<rect x="308.0" y="266" width="133.2" height="14" rx="2.5" fill="#f2a07f"/>
<text x="448.2" y="277" font-size="12.5" font-weight="700" fill="#1d2329">191.4 s</text>
<rect x="138" y="284" width="9.0" height="14" rx="2.5" fill="#2a9d8f"/>
<rect x="147.0" y="284" width="120.1" height="14" rx="2.5" fill="#94d2bd"/>
<text x="274.1" y="295" font-size="12.5" font-weight="700" fill="#1d2329">81.5 s</text>
<text x="126" y="328.0" font-size="13.5" font-weight="600" fill="#1d2329" text-anchor="end">cpython</text>
<rect x="138" y="308" width="102.5" height="14" rx="2.5" fill="#e4572e"/>
<rect x="240.5" y="308" width="194.7" height="14" rx="2.5" fill="#f2a07f"/>
<text x="442.2" y="319" font-size="12.5" font-weight="700" fill="#1d2329">187.6 s</text>
<rect x="138" y="326" width="7.0" height="14" rx="2.5" fill="#2a9d8f"/>
<rect x="145.0" y="326" width="143.4" height="14" rx="2.5" fill="#94d2bd"/>
<text x="295.3" y="337" font-size="12.5" font-weight="700" fill="#1d2329">94.9 s</text>
<text x="126" y="370.0" font-size="13.5" font-weight="600" fill="#1d2329" text-anchor="end">godot</text>
<rect x="138" y="350" width="166.0" height="14" rx="2.5" fill="#e4572e"/>
<rect x="304.0" y="350" width="118.6" height="14" rx="2.5" fill="#f2a07f"/>
<text x="429.6" y="361" font-size="12.5" font-weight="700" fill="#1d2329">179.7 s</text>
<rect x="138" y="368" width="4.4" height="14" rx="2.5" fill="#2a9d8f"/>
<rect x="142.4" y="368" width="49.7" height="14" rx="2.5" fill="#94d2bd"/>
<text x="199.2" y="379" font-size="12.5" font-weight="700" fill="#1d2329">34.2 s</text>
<text x="126" y="412.0" font-size="13.5" font-weight="600" fill="#1d2329" text-anchor="end">tensorflow</text>
<rect x="138" y="392" width="158.4" height="14" rx="2.5" fill="#e4572e"/>
<rect x="296.4" y="392" width="103.0" height="14" rx="2.5" fill="#f2a07f"/>
<text x="406.4" y="403" font-size="12.5" font-weight="700" fill="#1d2329">165 s</text>
<rect x="138" y="410" width="7.3" height="14" rx="2.5" fill="#2a9d8f"/>
<rect x="145.3" y="410" width="73.3" height="14" rx="2.5" fill="#94d2bd"/>
<text x="225.6" y="421" font-size="12.5" font-weight="700" fill="#1d2329">50.9 s</text>
<text x="126" y="454.0" font-size="13.5" font-weight="600" fill="#1d2329" text-anchor="end">kubernetes</text>
<rect x="138" y="434" width="145.7" height="14" rx="2.5" fill="#e4572e"/>
<rect x="283.7" y="434" width="81.6" height="14" rx="2.5" fill="#f2a07f"/>
<text x="372.3" y="445" font-size="12.5" font-weight="700" fill="#1d2329">143.5 s</text>
<rect x="138" y="452" width="8.2" height="14" rx="2.5" fill="#2a9d8f"/>
<rect x="146.2" y="452" width="36.7" height="14" rx="2.5" fill="#94d2bd"/>
<text x="190.0" y="463" font-size="12.5" font-weight="700" fill="#1d2329">28.4 s</text>
<text x="126" y="496.0" font-size="13.5" font-weight="600" fill="#1d2329" text-anchor="end">node</text>
<rect x="138" y="476" width="145.7" height="14" rx="2.5" fill="#e4572e"/>
<rect x="283.7" y="476" width="80.6" height="14" rx="2.5" fill="#f2a07f"/>
<text x="371.4" y="487" font-size="12.5" font-weight="700" fill="#1d2329">142.9 s</text>
<rect x="138" y="494" width="8.6" height="14" rx="2.5" fill="#2a9d8f"/>
<rect x="146.6" y="494" width="42.6" height="14" rx="2.5" fill="#94d2bd"/>
<text x="196.2" y="505" font-size="12.5" font-weight="700" fill="#1d2329">32.3 s</text>
<text x="126" y="538.0" font-size="13.5" font-weight="600" fill="#1d2329" text-anchor="end">vscode</text>
<rect x="138" y="518" width="142.9" height="14" rx="2.5" fill="#e4572e"/>
<rect x="280.9" y="518" width="81.1" height="14" rx="2.5" fill="#f2a07f"/>
<text x="369.0" y="529" font-size="12.5" font-weight="700" fill="#1d2329">141.4 s</text>
<rect x="138" y="536" width="7.8" height="14" rx="2.5" fill="#2a9d8f"/>
<rect x="145.8" y="536" width="38.2" height="14" rx="2.5" fill="#94d2bd"/>
<text x="190.9" y="547" font-size="12.5" font-weight="700" fill="#1d2329">29 s</text>
<text x="126" y="580.0" font-size="13.5" font-weight="600" fill="#1d2329" text-anchor="end">swift</text>
<rect x="138" y="560" width="171.2" height="14" rx="2.5" fill="#e4572e"/>
<rect x="309.2" y="560" width="51.8" height="14" rx="2.5" fill="#f2a07f"/>
<text x="368.0" y="571" font-size="12.5" font-weight="700" fill="#1d2329">140.8 s</text>
<rect x="138" y="578" width="8.2" height="14" rx="2.5" fill="#2a9d8f"/>
<rect x="146.2" y="578" width="61.8" height="14" rx="2.5" fill="#94d2bd"/>
<text x="215.0" y="589" font-size="12.5" font-weight="700" fill="#1d2329">44.2 s</text>
<text x="126" y="622.0" font-size="13.5" font-weight="600" fill="#1d2329" text-anchor="end">rust</text>
<rect x="138" y="602" width="148.6" height="14" rx="2.5" fill="#e4572e"/>
<rect x="286.6" y="602" width="27.1" height="14" rx="2.5" fill="#f2a07f"/>
<text x="320.7" y="613" font-size="12.5" font-weight="700" fill="#1d2329">110.9 s</text>
<rect x="138" y="620" width="11.2" height="14" rx="2.5" fill="#2a9d8f"/>
<rect x="149.2" y="620" width="18.2" height="14" rx="2.5" fill="#94d2bd"/>
<text x="174.5" y="631" font-size="12.5" font-weight="700" fill="#1d2329">18.6 s</text>
<text x="126" y="664.0" font-size="13.5" font-weight="600" fill="#1d2329" text-anchor="end">react</text>
<rect x="138" y="644" width="114.7" height="14" rx="2.5" fill="#e4572e"/>
<rect x="252.7" y="644" width="50.4" height="14" rx="2.5" fill="#f2a07f"/>
<text x="310.1" y="655" font-size="12.5" font-weight="700" fill="#1d2329">104.2 s</text>
<rect x="138" y="662" width="2.7" height="14" rx="2.5" fill="#2a9d8f"/>
<rect x="140.7" y="662" width="31.5" height="14" rx="2.5" fill="#94d2bd"/>
<text x="179.2" y="673" font-size="12.5" font-weight="700" fill="#1d2329">21.6 s</text>
<text x="126" y="706.0" font-size="13.5" font-weight="600" fill="#1d2329" text-anchor="end">flutter</text>
<rect x="138" y="686" width="64.3" height="14" rx="2.5" fill="#e4572e"/>
<rect x="202.3" y="686" width="16.8" height="14" rx="2.5" fill="#f2a07f"/>
<text x="226.1" y="697" font-size="12.5" font-weight="700" fill="#1d2329">51.2 s</text>
<rect x="138" y="704" width="6.0" height="14" rx="2.5" fill="#2a9d8f"/>
<rect x="144.0" y="704" width="17.4" height="14" rx="2.5" fill="#94d2bd"/>
<text x="168.4" y="715" font-size="12.5" font-weight="700" fill="#1d2329">14.8 s</text>
<text x="126" y="748.0" font-size="13.5" font-weight="600" fill="#1d2329" text-anchor="end">angular</text>
<rect x="138" y="728" width="61.8" height="14" rx="2.5" fill="#e4572e"/>
<rect x="199.8" y="728" width="14.7" height="14" rx="2.5" fill="#f2a07f"/>
<text x="221.5" y="739" font-size="12.5" font-weight="700" fill="#1d2329">48.3 s</text>
<rect x="138" y="746" width="3.2" height="14" rx="2.5" fill="#2a9d8f"/>
<rect x="141.2" y="746" width="14.4" height="14" rx="2.5" fill="#94d2bd"/>
<text x="162.6" y="757" font-size="12.5" font-weight="700" fill="#1d2329">11.1 s</text>
<text x="126" y="790.0" font-size="13.5" font-weight="600" fill="#1d2329" text-anchor="end">go</text>
<rect x="138" y="770" width="51.2" height="14" rx="2.5" fill="#e4572e"/>
<rect x="189.2" y="770" width="17.4" height="14" rx="2.5" fill="#f2a07f"/>
<text x="213.6" y="781" font-size="12.5" font-weight="700" fill="#1d2329">43.3 s</text>
<rect x="138" y="788" width="4.0" height="14" rx="2.5" fill="#2a9d8f"/>
<rect x="142.0" y="788" width="14.7" height="14" rx="2.5" fill="#94d2bd"/>
<text x="163.7" y="799" font-size="12.5" font-weight="700" fill="#1d2329">11.8 s</text>
<text x="126" y="832.0" font-size="13.5" font-weight="600" fill="#1d2329" text-anchor="end">deno</text>
<rect x="138" y="812" width="30.4" height="14" rx="2.5" fill="#e4572e"/>
<rect x="168.4" y="812" width="16.5" height="14" rx="2.5" fill="#f2a07f"/>
<text x="191.9" y="823" font-size="12.5" font-weight="700" fill="#1d2329">29.6 s</text>
<rect x="138" y="830" width="3.5" height="14" rx="2.5" fill="#2a9d8f"/>
<rect x="141.5" y="830" width="24.1" height="14" rx="2.5" fill="#94d2bd"/>
<text x="172.6" y="841" font-size="12.5" font-weight="700" fill="#1d2329">17.4 s</text>
<text x="126" y="874.0" font-size="13.5" font-weight="600" fill="#1d2329" text-anchor="end">redis</text>
<rect x="138" y="854" width="17.4" height="14" rx="2.5" fill="#e4572e"/>
<rect x="155.4" y="854" width="17.4" height="14" rx="2.5" fill="#f2a07f"/>
<text x="179.8" y="865" font-size="12.5" font-weight="700" fill="#1d2329">22 s</text>
<rect x="138" y="872" width="2.0" height="14" rx="2.5" fill="#2a9d8f"/>
<rect x="140.0" y="872" width="14.8" height="14" rx="2.5" fill="#94d2bd"/>
<text x="161.8" y="883" font-size="12.5" font-weight="700" fill="#1d2329">10.6 s</text>
<text x="126" y="916.0" font-size="13.5" font-weight="600" fill="#1d2329" text-anchor="end">vue</text>
<rect x="138" y="896" width="13.8" height="14" rx="2.5" fill="#e4572e"/>
<rect x="151.8" y="896" width="16.9" height="14" rx="2.5" fill="#f2a07f"/>
<text x="175.7" y="907" font-size="12.5" font-weight="700" fill="#1d2329">19.4 s</text>
<rect x="138" y="914" width="2.0" height="14" rx="2.5" fill="#2a9d8f"/>
<rect x="140.0" y="914" width="15.6" height="14" rx="2.5" fill="#94d2bd"/>
<text x="162.6" y="925" font-size="12.5" font-weight="700" fill="#1d2329">11.1 s</text>
<text x="126" y="958.0" font-size="13.5" font-weight="600" fill="#1d2329" text-anchor="end">svelte</text>
<rect x="138" y="938" width="12.4" height="14" rx="2.5" fill="#e4572e"/>
<rect x="150.4" y="938" width="17.3" height="14" rx="2.5" fill="#f2a07f"/>
<text x="174.6" y="949" font-size="12.5" font-weight="700" fill="#1d2329">18.7 s</text>
<rect x="138" y="956" width="2.2" height="14" rx="2.5" fill="#2a9d8f"/>
<rect x="140.2" y="956" width="23.9" height="14" rx="2.5" fill="#94d2bd"/>
<text x="171.1" y="967" font-size="12.5" font-weight="700" fill="#1d2329">16.5 s</text>
<text x="138" y="1021" font-size="11.5" fill="#6b7782">x-axis in seconds; each pair is full clone+agent above lazy mount+agent.</text>
</svg>