<svg xmlns="http://www.w3.org/2000/svg" width="960" height="996" viewBox="0 0 960 996" font-family="-apple-system,BlinkMacSystemFont,'Segoe UI',Roboto,Helvetica,Arial,sans-serif">
<rect width="960" height="996" fill="#ffffff"/>
<text x="132" y="40" font-size="23" font-weight="700" fill="#1d2329">Disk to a working copy — lower is better</text>
<text x="132" y="64" font-size="13.5" fill="#6b7782">Bytes written for a shallow checkout vs a lazy full-history mount, per repository.</text>
<rect x="132" y="79" width="15" height="15" rx="3" fill="#e4572e"/>
<text x="153" y="91" font-size="14" font-weight="600" fill="#1d2329">git clone --depth 1</text>
<rect x="344" y="79" width="15" height="15" rx="3" fill="#2a9d8f"/>
<text x="365" y="91" font-size="14" font-weight="600" fill="#1d2329">git lazy-mount</text>
<line x1="132.0" y1="122" x2="132.0" y2="932" stroke="#e7ebef" stroke-width="1"/>
<text x="132.0" y="954" font-size="12" fill="#6b7782" text-anchor="middle">0</text>
<line x1="271.3" y1="122" x2="271.3" y2="932" stroke="#e7ebef" stroke-width="1"/>
<text x="271.3" y="954" font-size="12" fill="#6b7782" text-anchor="middle">100</text>
<line x1="410.6" y1="122" x2="410.6" y2="932" stroke="#e7ebef" stroke-width="1"/>
<text x="410.6" y="954" font-size="12" fill="#6b7782" text-anchor="middle">200</text>
<line x1="550.0" y1="122" x2="550.0" y2="932" stroke="#e7ebef" stroke-width="1"/>
<text x="550.0" y="954" font-size="12" fill="#6b7782" text-anchor="middle">300</text>
<line x1="639.1" y1="122" x2="639.1" y2="932" stroke="#e7ebef" stroke-width="1"/>
<text x="639.1" y="954" font-size="12" fill="#6b7782" text-anchor="middle">1000</text>
<line x1="729.2" y1="122" x2="729.2" y2="932" stroke="#e7ebef" stroke-width="1"/>
<text x="729.2" y="954" font-size="12" fill="#6b7782" text-anchor="middle">2000</text>
<line x1="819.3" y1="122" x2="819.3" y2="932" stroke="#e7ebef" stroke-width="1"/>
<text x="819.3" y="954" font-size="12" fill="#6b7782" text-anchor="middle">3000</text>
<line x1="909.5" y1="122" x2="909.5" y2="932" stroke="#e7ebef" stroke-width="1"/>
<text x="909.5" y="954" font-size="12" fill="#6b7782" text-anchor="middle">4000</text>
<line x1="132.0" y1="122" x2="132.0" y2="932" stroke="#cfd6dc" stroke-width="1"/>
<rect x="550.0" y="122" width="26" height="810" fill="#ffffff"/>
<path d="M555.0 116 l8 12 M563.0 116 l8 12" stroke="#54606b" stroke-width="1.6" fill="none"/>
<path d="M555.0 926 l8 12 M563.0 926 l8 12" stroke="#54606b" stroke-width="1.6" fill="none"/>
<text x="563.0" y="116" font-size="11" fill="#6b7782" text-anchor="middle">break</text>
<text x="580.0" y="972" font-size="11.5" fill="#6b7782">scale compressed above 300 MB</text>
<text x="132" y="972" font-size="11.5" fill="#6b7782">detail scale (0–300 MB)</text>
<text x="120" y="156.5" font-size="13.5" font-weight="600" fill="#1d2329" text-anchor="end">llvm</text>
<rect x="132" y="138" width="636.3" height="13" rx="2.5" fill="#e4572e"/>
<text x="761.3" y="148.0" font-size="12.5" font-weight="700" fill="#ffffff" text-anchor="end">2434 MB</text>
<rect x="132" y="154" width="394.3" height="13" rx="2.5" fill="#2a9d8f"/>
<text x="519.3" y="164.0" font-size="12.5" font-weight="700" fill="#ffffff" text-anchor="end">283 MB</text>
<text x="120" y="196.5" font-size="13.5" font-weight="600" fill="#1d2329" text-anchor="end">node</text>
<rect x="132" y="178" width="485.9" height="13" rx="2.5" fill="#e4572e"/>
<text x="610.9" y="188.0" font-size="12.5" font-weight="700" fill="#ffffff" text-anchor="end">765 MB</text>
<rect x="132" y="194" width="110.1" height="13" rx="2.5" fill="#2a9d8f"/>
<text x="235.1" y="204.0" font-size="12.5" font-weight="700" fill="#ffffff" text-anchor="end">79 MB</text>
<text x="120" y="236.5" font-size="13.5" font-weight="600" fill="#1d2329" text-anchor="end">elasticsearch</text>
<rect x="132" y="218" width="464.9" height="13" rx="2.5" fill="#e4572e"/>
<text x="589.9" y="228.0" font-size="12.5" font-weight="700" fill="#ffffff" text-anchor="end">532 MB</text>
<rect x="132" y="234" width="154.6" height="13" rx="2.5" fill="#2a9d8f"/>
<text x="279.6" y="244.0" font-size="12.5" font-weight="700" fill="#ffffff" text-anchor="end">111 MB</text>
<text x="120" y="276.5" font-size="13.5" font-weight="600" fill="#1d2329" text-anchor="end">tensorflow</text>
<rect x="132" y="258" width="463.7" height="13" rx="2.5" fill="#e4572e"/>
<text x="588.7" y="268.0" font-size="12.5" font-weight="700" fill="#ffffff" text-anchor="end">519 MB</text>
<rect x="132" y="274" width="97.5" height="13" rx="2.5" fill="#2a9d8f"/>
<text x="222.5" y="284.0" font-size="12.5" font-weight="700" fill="#ffffff" text-anchor="end">70 MB</text>
<text x="120" y="316.5" font-size="13.5" font-weight="600" fill="#1d2329" text-anchor="end">typescript</text>
<rect x="132" y="298" width="453.8" height="13" rx="2.5" fill="#e4572e"/>
<text x="578.8" y="308.0" font-size="12.5" font-weight="700" fill="#ffffff" text-anchor="end">409 MB</text>
<rect x="132" y="314" width="30.7" height="13" rx="2.5" fill="#2a9d8f"/>
<text x="169.7" y="324.0" font-size="12.5" font-weight="700" fill="#2a9d8f" text-anchor="start">22 MB</text>
<text x="120" y="356.5" font-size="13.5" font-weight="600" fill="#1d2329" text-anchor="end">godot</text>
<rect x="132" y="338" width="452.1" height="13" rx="2.5" fill="#e4572e"/>
<text x="577.1" y="348.0" font-size="12.5" font-weight="700" fill="#ffffff" text-anchor="end">390 MB</text>
<rect x="132" y="354" width="68.3" height="13" rx="2.5" fill="#2a9d8f"/>
<text x="193.3" y="364.0" font-size="12.5" font-weight="700" fill="#ffffff" text-anchor="end">49 MB</text>
<text x="120" y="396.5" font-size="13.5" font-weight="600" fill="#1d2329" text-anchor="end">kubernetes</text>
<rect x="132" y="378" width="418.0" height="13" rx="2.5" fill="#e4572e"/>
<text x="543.0" y="388.0" font-size="12.5" font-weight="700" fill="#ffffff" text-anchor="end">300 MB</text>
<rect x="132" y="394" width="101.7" height="13" rx="2.5" fill="#2a9d8f"/>
<text x="226.7" y="404.0" font-size="12.5" font-weight="700" fill="#ffffff" text-anchor="end">73 MB</text>
<text x="120" y="436.5" font-size="13.5" font-weight="600" fill="#1d2329" text-anchor="end">pytorch</text>
<rect x="132" y="418" width="387.3" height="13" rx="2.5" fill="#e4572e"/>
<text x="512.3" y="428.0" font-size="12.5" font-weight="700" fill="#ffffff" text-anchor="end">278 MB</text>
<rect x="132" y="434" width="92.0" height="13" rx="2.5" fill="#2a9d8f"/>
<text x="217.0" y="444.0" font-size="12.5" font-weight="700" fill="#ffffff" text-anchor="end">66 MB</text>
<text x="120" y="476.5" font-size="13.5" font-weight="600" fill="#1d2329" text-anchor="end">rust</text>
<rect x="132" y="458" width="370.6" height="13" rx="2.5" fill="#e4572e"/>
<text x="495.6" y="468.0" font-size="12.5" font-weight="700" fill="#ffffff" text-anchor="end">266 MB</text>
<rect x="132" y="474" width="199.2" height="13" rx="2.5" fill="#2a9d8f"/>
<text x="324.2" y="484.0" font-size="12.5" font-weight="700" fill="#ffffff" text-anchor="end">143 MB</text>
<text x="120" y="516.5" font-size="13.5" font-weight="600" fill="#1d2329" text-anchor="end">vscode</text>
<rect x="132" y="498" width="369.2" height="13" rx="2.5" fill="#e4572e"/>
<text x="494.2" y="508.0" font-size="12.5" font-weight="700" fill="#ffffff" text-anchor="end">265 MB</text>
<rect x="132" y="514" width="129.6" height="13" rx="2.5" fill="#2a9d8f"/>
<text x="254.6" y="524.0" font-size="12.5" font-weight="700" fill="#ffffff" text-anchor="end">93 MB</text>
<text x="120" y="556.5" font-size="13.5" font-weight="600" fill="#1d2329" text-anchor="end">swift</text>
<rect x="132" y="538" width="338.5" height="13" rx="2.5" fill="#e4572e"/>
<text x="463.5" y="548.0" font-size="12.5" font-weight="700" fill="#ffffff" text-anchor="end">243 MB</text>
<rect x="132" y="554" width="140.7" height="13" rx="2.5" fill="#2a9d8f"/>
<text x="265.7" y="564.0" font-size="12.5" font-weight="700" fill="#ffffff" text-anchor="end">101 MB</text>
<text x="120" y="596.5" font-size="13.5" font-weight="600" fill="#1d2329" text-anchor="end">flutter</text>
<rect x="132" y="578" width="253.6" height="13" rx="2.5" fill="#e4572e"/>
<text x="378.6" y="588.0" font-size="12.5" font-weight="700" fill="#ffffff" text-anchor="end">182 MB</text>
<rect x="132" y="594" width="76.6" height="13" rx="2.5" fill="#2a9d8f"/>
<text x="201.6" y="604.0" font-size="12.5" font-weight="700" fill="#ffffff" text-anchor="end">55 MB</text>
<text x="120" y="636.5" font-size="13.5" font-weight="600" fill="#1d2329" text-anchor="end">go</text>
<rect x="132" y="618" width="252.2" height="13" rx="2.5" fill="#e4572e"/>
<text x="377.2" y="628.0" font-size="12.5" font-weight="700" fill="#ffffff" text-anchor="end">181 MB</text>
<rect x="132" y="634" width="48.8" height="13" rx="2.5" fill="#2a9d8f"/>
<text x="187.8" y="644.0" font-size="12.5" font-weight="700" fill="#2a9d8f" text-anchor="start">35 MB</text>
<text x="120" y="676.5" font-size="13.5" font-weight="600" fill="#1d2329" text-anchor="end">cpython</text>
<rect x="132" y="658" width="241.0" height="13" rx="2.5" fill="#e4572e"/>
<text x="366.0" y="668.0" font-size="12.5" font-weight="700" fill="#ffffff" text-anchor="end">173 MB</text>
<rect x="132" y="674" width="108.7" height="13" rx="2.5" fill="#2a9d8f"/>
<text x="233.7" y="684.0" font-size="12.5" font-weight="700" fill="#ffffff" text-anchor="end">78 MB</text>
<text x="120" y="716.5" font-size="13.5" font-weight="600" fill="#1d2329" text-anchor="end">angular</text>
<rect x="132" y="698" width="231.3" height="13" rx="2.5" fill="#e4572e"/>
<text x="356.3" y="708.0" font-size="12.5" font-weight="700" fill="#ffffff" text-anchor="end">166 MB</text>
<rect x="132" y="714" width="26.5" height="13" rx="2.5" fill="#2a9d8f"/>
<text x="165.5" y="724.0" font-size="12.5" font-weight="700" fill="#2a9d8f" text-anchor="start">19 MB</text>
<text x="120" y="756.5" font-size="13.5" font-weight="600" fill="#1d2329" text-anchor="end">deno</text>
<rect x="132" y="738" width="171.4" height="13" rx="2.5" fill="#e4572e"/>
<text x="296.4" y="748.0" font-size="12.5" font-weight="700" fill="#ffffff" text-anchor="end">123 MB</text>
<rect x="132" y="754" width="25.1" height="13" rx="2.5" fill="#2a9d8f"/>
<text x="164.1" y="764.0" font-size="12.5" font-weight="700" fill="#2a9d8f" text-anchor="start">18 MB</text>
<text x="120" y="796.5" font-size="13.5" font-weight="600" fill="#1d2329" text-anchor="end">react</text>
<rect x="132" y="778" width="69.7" height="13" rx="2.5" fill="#e4572e"/>
<text x="194.7" y="788.0" font-size="12.5" font-weight="700" fill="#ffffff" text-anchor="end">50 MB</text>
<rect x="132" y="794" width="25.1" height="13" rx="2.5" fill="#2a9d8f"/>
<text x="164.1" y="804.0" font-size="12.5" font-weight="700" fill="#2a9d8f" text-anchor="start">18 MB</text>
<text x="120" y="836.5" font-size="13.5" font-weight="600" fill="#1d2329" text-anchor="end">redis</text>
<rect x="132" y="818" width="34.8" height="13" rx="2.5" fill="#e4572e"/>
<text x="173.8" y="828.0" font-size="12.5" font-weight="700" fill="#e4572e" text-anchor="start">25 MB</text>
<rect x="132" y="834" width="11.1" height="13" rx="2.5" fill="#2a9d8f"/>
<text x="150.1" y="844.0" font-size="12.5" font-weight="700" fill="#2a9d8f" text-anchor="start">8 MB</text>
<text x="120" y="876.5" font-size="13.5" font-weight="600" fill="#1d2329" text-anchor="end">svelte</text>
<rect x="132" y="858" width="15.3" height="13" rx="2.5" fill="#e4572e"/>
<text x="154.3" y="868.0" font-size="12.5" font-weight="700" fill="#e4572e" text-anchor="start">11 MB</text>
<rect x="132" y="874" width="11.1" height="13" rx="2.5" fill="#2a9d8f"/>
<text x="150.1" y="884.0" font-size="12.5" font-weight="700" fill="#2a9d8f" text-anchor="start">8 MB</text>
<text x="120" y="916.5" font-size="13.5" font-weight="600" fill="#1d2329" text-anchor="end">vue</text>
<rect x="132" y="898" width="11.1" height="13" rx="2.5" fill="#e4572e"/>
<text x="150.1" y="908.0" font-size="12.5" font-weight="700" fill="#e4572e" text-anchor="start">8 MB</text>
<rect x="132" y="914" width="5.6" height="13" rx="2.5" fill="#2a9d8f"/>
<text x="144.6" y="924.0" font-size="12.5" font-weight="700" fill="#2a9d8f" text-anchor="start">4 MB</text>
</svg>