<svg xmlns="http://www.w3.org/2000/svg" width="900" height="590" font-family="-apple-system,Segoe UI,Helvetica,Arial,sans-serif" font-size="12">
<text x="150" y="22" font-size="15" font-weight="600">Disk to a working copy (full git clone vs lazy-mount) — lower is better</text>
<rect x="150" y="34" width="11" height="11" fill="#c0504d"/><text x="166" y="44">git clone (full, with history)</text>
<rect x="350" y="34" width="11" height="11" fill="#4f81bd"/><text x="366" y="44">git lazy-mount</text>
<text x="144" y="69.0" text-anchor="end">llvm</text>
<rect x="150" y="58" width="560.0" height="9.0" fill="#c0504d"/>
<text x="714.0" y="66.0" fill="#555">4160 MB</text>
<rect x="150" y="67.0" width="38.1" height="9.0" fill="#4f81bd"/>
<text x="192.1" y="75.0" fill="#555">283 MB</text>
<text x="144" y="95.0" text-anchor="end">typescript</text>
<rect x="150" y="84" width="389.2" height="9.0" fill="#c0504d"/>
<text x="543.2" y="92.0" fill="#555">2891 MB</text>
<rect x="150" y="93.0" width="3.0" height="9.0" fill="#4f81bd"/>
<text x="157.0" y="101.0" fill="#555">22 MB</text>
<text x="144" y="121.0" text-anchor="end">godot</text>
<rect x="150" y="110" width="242.7" height="9.0" fill="#c0504d"/>
<text x="396.7" y="118.0" fill="#555">1803 MB</text>
<rect x="150" y="119.0" width="6.6" height="9.0" fill="#4f81bd"/>
<text x="160.6" y="127.0" fill="#555">49 MB</text>
<text x="144" y="147.0" text-anchor="end">elasticsearch</text>
<rect x="150" y="136" width="220.1" height="9.0" fill="#c0504d"/>
<text x="374.1" y="144.0" fill="#555">1635 MB</text>
<rect x="150" y="145.0" width="14.9" height="9.0" fill="#4f81bd"/>
<text x="168.9" y="153.0" fill="#555">111 MB</text>
<text x="144" y="173.0" text-anchor="end">node</text>
<rect x="150" y="162" width="197.6" height="9.0" fill="#c0504d"/>
<text x="351.6" y="170.0" fill="#555">1468 MB</text>
<rect x="150" y="171.0" width="10.6" height="9.0" fill="#4f81bd"/>
<text x="164.6" y="179.0" fill="#555">79 MB</text>
<text x="144" y="199.0" text-anchor="end">kubernetes</text>
<rect x="150" y="188" width="195.1" height="9.0" fill="#c0504d"/>
<text x="349.1" y="196.0" fill="#555">1449 MB</text>
<rect x="150" y="197.0" width="9.8" height="9.0" fill="#4f81bd"/>
<text x="163.8" y="205.0" fill="#555">73 MB</text>
<text x="144" y="225.0" text-anchor="end">pytorch</text>
<rect x="150" y="214" width="190.3" height="9.0" fill="#c0504d"/>
<text x="344.3" y="222.0" fill="#555">1414 MB</text>
<rect x="150" y="223.0" width="8.9" height="9.0" fill="#4f81bd"/>
<text x="162.9" y="231.0" fill="#555">66 MB</text>
<text x="144" y="251.0" text-anchor="end">swift</text>
<rect x="150" y="240" width="177.8" height="9.0" fill="#c0504d"/>
<text x="331.8" y="248.0" fill="#555">1321 MB</text>
<rect x="150" y="249.0" width="13.6" height="9.0" fill="#4f81bd"/>
<text x="167.6" y="257.0" fill="#555">101 MB</text>
<text x="144" y="277.0" text-anchor="end">tensorflow</text>
<rect x="150" y="266" width="176.1" height="9.0" fill="#c0504d"/>
<text x="330.1" y="274.0" fill="#555">1308 MB</text>
<rect x="150" y="275.0" width="9.4" height="9.0" fill="#4f81bd"/>
<text x="163.4" y="283.0" fill="#555">70 MB</text>
<text x="144" y="303.0" text-anchor="end">vscode</text>
<rect x="150" y="292" width="171.4" height="9.0" fill="#c0504d"/>
<text x="325.4" y="300.0" fill="#555">1273 MB</text>
<rect x="150" y="301.0" width="12.5" height="9.0" fill="#4f81bd"/>
<text x="166.5" y="309.0" fill="#555">93 MB</text>
<text x="144" y="329.0" text-anchor="end">react</text>
<rect x="150" y="318" width="131.5" height="9.0" fill="#c0504d"/>
<text x="285.5" y="326.0" fill="#555">977 MB</text>
<rect x="150" y="327.0" width="2.4" height="9.0" fill="#4f81bd"/>
<text x="156.4" y="335.0" fill="#555">18 MB</text>
<text x="144" y="355.0" text-anchor="end">rust</text>
<rect x="150" y="344" width="122.0" height="9.0" fill="#c0504d"/>
<text x="276.0" y="352.0" fill="#555">906 MB</text>
<rect x="150" y="353.0" width="19.2" height="9.0" fill="#4f81bd"/>
<text x="173.2" y="361.0" fill="#555">143 MB</text>
<text x="144" y="381.0" text-anchor="end">cpython</text>
<rect x="150" y="370" width="110.2" height="9.0" fill="#c0504d"/>
<text x="264.2" y="378.0" fill="#555">819 MB</text>
<rect x="150" y="379.0" width="10.5" height="9.0" fill="#4f81bd"/>
<text x="164.5" y="387.0" fill="#555">78 MB</text>
<text x="144" y="407.0" text-anchor="end">angular</text>
<rect x="150" y="396" width="84.7" height="9.0" fill="#c0504d"/>
<text x="238.7" y="404.0" fill="#555">629 MB</text>
<rect x="150" y="405.0" width="2.6" height="9.0" fill="#4f81bd"/>
<text x="156.6" y="413.0" fill="#555">19 MB</text>
<text x="144" y="433.0" text-anchor="end">flutter</text>
<rect x="150" y="422" width="59.0" height="9.0" fill="#c0504d"/>
<text x="213.0" y="430.0" fill="#555">438 MB</text>
<rect x="150" y="431.0" width="7.4" height="9.0" fill="#4f81bd"/>
<text x="161.4" y="439.0" fill="#555">55 MB</text>
<text x="144" y="459.0" text-anchor="end">go</text>
<rect x="150" y="448" width="58.3" height="9.0" fill="#c0504d"/>
<text x="212.3" y="456.0" fill="#555">433 MB</text>
<rect x="150" y="457.0" width="4.7" height="9.0" fill="#4f81bd"/>
<text x="158.7" y="465.0" fill="#555">35 MB</text>
<text x="144" y="485.0" text-anchor="end">deno</text>
<rect x="150" y="474" width="31.4" height="9.0" fill="#c0504d"/>
<text x="185.4" y="482.0" fill="#555">233 MB</text>
<rect x="150" y="483.0" width="2.4" height="9.0" fill="#4f81bd"/>
<text x="156.4" y="491.0" fill="#555">18 MB</text>
<text x="144" y="511.0" text-anchor="end">redis</text>
<rect x="150" y="500" width="28.1" height="9.0" fill="#c0504d"/>
<text x="182.1" y="508.0" fill="#555">209 MB</text>
<rect x="150" y="509.0" width="1.1" height="9.0" fill="#4f81bd"/>
<text x="155.1" y="517.0" fill="#555">8 MB</text>
<text x="144" y="537.0" text-anchor="end">svelte</text>
<rect x="150" y="526" width="15.9" height="9.0" fill="#c0504d"/>
<text x="169.9" y="534.0" fill="#555">118 MB</text>
<rect x="150" y="535.0" width="1.1" height="9.0" fill="#4f81bd"/>
<text x="155.1" y="543.0" fill="#555">8 MB</text>
<text x="144" y="563.0" text-anchor="end">vue</text>
<rect x="150" y="552" width="5.7" height="9.0" fill="#c0504d"/>
<text x="159.7" y="560.0" fill="#555">42 MB</text>
<rect x="150" y="561.0" width="0.5" height="9.0" fill="#4f81bd"/>
<text x="154.5" y="569.0" fill="#555">4 MB</text>
</svg>