<svg xmlns="http://www.w3.org/2000/svg" width="900" height="590" font-family="-apple-system,Segoe UI,Helvetica,Arial,sans-serif" font-size="12">
<text x="150" y="22" font-size="15" font-weight="600">Time to a ready working copy (vs even a shallow clone) — lower is better</text>
<rect x="150" y="34" width="11" height="11" fill="#c0504d"/><text x="166" y="44">git clone --depth 1</text>
<rect x="350" y="34" width="11" height="11" fill="#4f81bd"/><text x="366" y="44">git lazy-mount</text>
<text x="144" y="69.0" text-anchor="end">elasticsearch</text>
<rect x="150" y="58" width="560.0" height="9.0" fill="#c0504d"/>
<text x="714.0" y="66.0" fill="#555">131.1 s</text>
<rect x="150" y="67.0" width="29.5" height="9.0" fill="#4f81bd"/>
<text x="183.5" y="75.0" fill="#555">6.9 s</text>
<text x="144" y="95.0" text-anchor="end">redis</text>
<rect x="150" y="84" width="559.6" height="9.0" fill="#c0504d"/>
<text x="713.6" y="92.0" fill="#555">131 s</text>
<rect x="150" y="93.0" width="93.1" height="9.0" fill="#4f81bd"/>
<text x="247.1" y="101.0" fill="#555">21.8 s</text>
<text x="144" y="121.0" text-anchor="end">tensorflow</text>
<rect x="150" y="110" width="559.6" height="9.0" fill="#c0504d"/>
<text x="713.6" y="118.0" fill="#555">131 s</text>
<rect x="150" y="119.0" width="21.4" height="9.0" fill="#4f81bd"/>
<text x="175.4" y="127.0" fill="#555">5 s</text>
<text x="144" y="147.0" text-anchor="end">llvm</text>
<rect x="150" y="136" width="264.8" height="9.0" fill="#c0504d"/>
<text x="418.8" y="144.0" fill="#555">62 s</text>
<rect x="150" y="145.0" width="79.9" height="9.0" fill="#4f81bd"/>
<text x="233.9" y="153.0" fill="#555">18.7 s</text>
<text x="144" y="173.0" text-anchor="end">godot</text>
<rect x="150" y="162" width="133.7" height="9.0" fill="#c0504d"/>
<text x="287.7" y="170.0" fill="#555">31.3 s</text>
<rect x="150" y="171.0" width="94.4" height="9.0" fill="#4f81bd"/>
<text x="248.4" y="179.0" fill="#555">22.1 s</text>
<text x="144" y="199.0" text-anchor="end">node</text>
<rect x="150" y="188" width="108.1" height="9.0" fill="#c0504d"/>
<text x="262.1" y="196.0" fill="#555">25.3 s</text>
<rect x="150" y="197.0" width="23.9" height="9.0" fill="#4f81bd"/>
<text x="177.9" y="205.0" fill="#555">5.6 s</text>
<text x="144" y="225.0" text-anchor="end">typescript</text>
<rect x="150" y="214" width="72.6" height="9.0" fill="#c0504d"/>
<text x="226.6" y="222.0" fill="#555">17 s</text>
<rect x="150" y="223.0" width="10.7" height="9.0" fill="#4f81bd"/>
<text x="164.7" y="231.0" fill="#555">2.5 s</text>
<text x="144" y="251.0" text-anchor="end">rust</text>
<rect x="150" y="240" width="59.4" height="9.0" fill="#c0504d"/>
<text x="213.4" y="248.0" fill="#555">13.9 s</text>
<rect x="150" y="249.0" width="51.7" height="9.0" fill="#4f81bd"/>
<text x="205.7" y="257.0" fill="#555">12.1 s</text>
<text x="144" y="277.0" text-anchor="end">kubernetes</text>
<rect x="150" y="266" width="56.0" height="9.0" fill="#c0504d"/>
<text x="210.0" y="274.0" fill="#555">13.1 s</text>
<rect x="150" y="275.0" width="49.5" height="9.0" fill="#4f81bd"/>
<text x="203.5" y="283.0" fill="#555">11.6 s</text>
<text x="144" y="303.0" text-anchor="end">pytorch</text>
<rect x="150" y="292" width="50.4" height="9.0" fill="#c0504d"/>
<text x="204.4" y="300.0" fill="#555">11.8 s</text>
<rect x="150" y="301.0" width="25.6" height="9.0" fill="#4f81bd"/>
<text x="179.6" y="309.0" fill="#555">6 s</text>
<text x="144" y="329.0" text-anchor="end">swift</text>
<rect x="150" y="318" width="48.7" height="9.0" fill="#c0504d"/>
<text x="202.7" y="326.0" fill="#555">11.4 s</text>
<rect x="150" y="327.0" width="91.4" height="9.0" fill="#4f81bd"/>
<text x="245.4" y="335.0" fill="#555">21.4 s</text>
<text x="144" y="355.0" text-anchor="end">flutter</text>
<rect x="150" y="344" width="38.9" height="9.0" fill="#c0504d"/>
<text x="192.9" y="352.0" fill="#555">9.1 s</text>
<rect x="150" y="353.0" width="21.8" height="9.0" fill="#4f81bd"/>
<text x="175.8" y="361.0" fill="#555">5.1 s</text>
<text x="144" y="381.0" text-anchor="end">cpython</text>
<rect x="150" y="370" width="28.6" height="9.0" fill="#c0504d"/>
<text x="182.6" y="378.0" fill="#555">6.7 s</text>
<rect x="150" y="379.0" width="19.6" height="9.0" fill="#4f81bd"/>
<text x="173.6" y="387.0" fill="#555">4.6 s</text>
<text x="144" y="407.0" text-anchor="end">go</text>
<rect x="150" y="396" width="28.2" height="9.0" fill="#c0504d"/>
<text x="182.2" y="404.0" fill="#555">6.6 s</text>
<rect x="150" y="405.0" width="13.2" height="9.0" fill="#4f81bd"/>
<text x="167.2" y="413.0" fill="#555">3.1 s</text>
<text x="144" y="433.0" text-anchor="end">vscode</text>
<rect x="150" y="422" width="26.1" height="9.0" fill="#c0504d"/>
<text x="180.1" y="430.0" fill="#555">6.1 s</text>
<rect x="150" y="431.0" width="27.8" height="9.0" fill="#4f81bd"/>
<text x="181.8" y="439.0" fill="#555">6.5 s</text>
<text x="144" y="459.0" text-anchor="end">angular</text>
<rect x="150" y="448" width="25.2" height="9.0" fill="#c0504d"/>
<text x="179.2" y="456.0" fill="#555">5.9 s</text>
<rect x="150" y="457.0" width="23.5" height="9.0" fill="#4f81bd"/>
<text x="177.5" y="465.0" fill="#555">5.5 s</text>
<text x="144" y="485.0" text-anchor="end">deno</text>
<rect x="150" y="474" width="21.8" height="9.0" fill="#c0504d"/>
<text x="175.8" y="482.0" fill="#555">5.1 s</text>
<rect x="150" y="483.0" width="24.8" height="9.0" fill="#4f81bd"/>
<text x="178.8" y="491.0" fill="#555">5.8 s</text>
<text x="144" y="511.0" text-anchor="end">react</text>
<rect x="150" y="500" width="13.7" height="9.0" fill="#c0504d"/>
<text x="167.7" y="508.0" fill="#555">3.2 s</text>
<rect x="150" y="509.0" width="9.0" height="9.0" fill="#4f81bd"/>
<text x="163.0" y="517.0" fill="#555">2.1 s</text>
<text x="144" y="537.0" text-anchor="end">svelte</text>
<rect x="150" y="526" width="8.1" height="9.0" fill="#c0504d"/>
<text x="162.1" y="534.0" fill="#555">1.9 s</text>
<rect x="150" y="535.0" width="38.0" height="9.0" fill="#4f81bd"/>
<text x="192.0" y="543.0" fill="#555">8.9 s</text>
<text x="144" y="563.0" text-anchor="end">vue</text>
<rect x="150" y="552" width="4.3" height="9.0" fill="#c0504d"/>
<text x="158.3" y="560.0" fill="#555">1 s</text>
<rect x="150" y="561.0" width="4.7" height="9.0" fill="#4f81bd"/>
<text x="158.7" y="569.0" fill="#555">1.1 s</text>
</svg>