<svg xmlns="http://www.w3.org/2000/svg" width="960" height="996" viewBox="0 0 960 996" font-family="-apple-system,BlinkMacSystemFont,'Segoe UI',Roboto,Helvetica,Arial,sans-serif">
<rect width="960" height="996" fill="#ffffff"/>
<text x="132" y="40" font-size="23" font-weight="700" fill="#1d2329">Time to a ready working copy — lower is better</text>
<text x="132" y="64" font-size="13.5" fill="#6b7782">Wall-clock seconds until the checkout is usable, per repository (20 large open-source repos).</text>
<rect x="132" y="79" width="15" height="15" rx="3" fill="#e4572e"/>
<text x="153" y="91" font-size="14" font-weight="600" fill="#1d2329">git clone --depth 1</text>
<rect x="344" y="79" width="15" height="15" rx="3" fill="#2a9d8f"/>
<text x="365" y="91" font-size="14" font-weight="600" fill="#1d2329">git lazy-mount</text>
<line x1="132.0" y1="122" x2="132.0" y2="932" stroke="#e7ebef" stroke-width="1"/>
<text x="132.0" y="954" font-size="12" fill="#6b7782" text-anchor="middle">0</text>
<line x1="271.3" y1="122" x2="271.3" y2="932" stroke="#e7ebef" stroke-width="1"/>
<text x="271.3" y="954" font-size="12" fill="#6b7782" text-anchor="middle">10</text>
<line x1="410.6" y1="122" x2="410.6" y2="932" stroke="#e7ebef" stroke-width="1"/>
<text x="410.6" y="954" font-size="12" fill="#6b7782" text-anchor="middle">20</text>
<line x1="550.0" y1="122" x2="550.0" y2="932" stroke="#e7ebef" stroke-width="1"/>
<text x="550.0" y="954" font-size="12" fill="#6b7782" text-anchor="middle">30</text>
<line x1="675.8" y1="122" x2="675.8" y2="932" stroke="#e7ebef" stroke-width="1"/>
<text x="675.8" y="954" font-size="12" fill="#6b7782" text-anchor="middle">60</text>
<line x1="775.6" y1="122" x2="775.6" y2="932" stroke="#e7ebef" stroke-width="1"/>
<text x="775.6" y="954" font-size="12" fill="#6b7782" text-anchor="middle">90</text>
<line x1="875.4" y1="122" x2="875.4" y2="932" stroke="#e7ebef" stroke-width="1"/>
<text x="875.4" y="954" font-size="12" fill="#6b7782" text-anchor="middle">120</text>
<line x1="132.0" y1="122" x2="132.0" y2="932" stroke="#cfd6dc" stroke-width="1"/>
<rect x="550.0" y="122" width="26" height="810" fill="#ffffff"/>
<path d="M555.0 116 l8 12 M563.0 116 l8 12" stroke="#54606b" stroke-width="1.6" fill="none"/>
<path d="M555.0 926 l8 12 M563.0 926 l8 12" stroke="#54606b" stroke-width="1.6" fill="none"/>
<text x="563.0" y="116" font-size="11" fill="#6b7782" text-anchor="middle">break</text>
<text x="580.0" y="972" font-size="11.5" fill="#6b7782">scale compressed above 30 s</text>
<text x="132" y="972" font-size="11.5" fill="#6b7782">detail scale (0–30 s)</text>
<text x="120" y="156.5" font-size="13.5" font-weight="600" fill="#1d2329" text-anchor="end">llvm</text>
<rect x="132" y="138" width="558.4" height="13" rx="2.5" fill="#e4572e"/>
<text x="683.4" y="148.0" font-size="12.5" font-weight="700" fill="#ffffff" text-anchor="end">64.4 s</text>
<rect x="132" y="154" width="210.4" height="13" rx="2.5" fill="#2a9d8f"/>
<text x="335.4" y="164.0" font-size="12.5" font-weight="700" fill="#ffffff" text-anchor="end">15.1 s</text>
<text x="120" y="196.5" font-size="13.5" font-weight="600" fill="#1d2329" text-anchor="end">node</text>
<rect x="132" y="178" width="380.3" height="13" rx="2.5" fill="#e4572e"/>
<text x="505.3" y="188.0" font-size="12.5" font-weight="700" fill="#ffffff" text-anchor="end">27.3 s</text>
<rect x="132" y="194" width="75.2" height="13" rx="2.5" fill="#2a9d8f"/>
<text x="200.2" y="204.0" font-size="12.5" font-weight="700" fill="#ffffff" text-anchor="end">5.4 s</text>
<text x="120" y="236.5" font-size="13.5" font-weight="600" fill="#1d2329" text-anchor="end">elasticsearch</text>
<rect x="132" y="218" width="370.6" height="13" rx="2.5" fill="#e4572e"/>
<text x="495.6" y="228.0" font-size="12.5" font-weight="700" fill="#ffffff" text-anchor="end">26.6 s</text>
<rect x="132" y="234" width="89.2" height="13" rx="2.5" fill="#2a9d8f"/>
<text x="214.2" y="244.0" font-size="12.5" font-weight="700" fill="#ffffff" text-anchor="end">6.4 s</text>
<text x="120" y="276.5" font-size="13.5" font-weight="600" fill="#1d2329" text-anchor="end">tensorflow</text>
<rect x="132" y="258" width="310.7" height="13" rx="2.5" fill="#e4572e"/>
<text x="435.7" y="268.0" font-size="12.5" font-weight="700" fill="#ffffff" text-anchor="end">22.3 s</text>
<rect x="132" y="274" width="66.9" height="13" rx="2.5" fill="#2a9d8f"/>
<text x="191.9" y="284.0" font-size="12.5" font-weight="700" fill="#ffffff" text-anchor="end">4.8 s</text>
<text x="120" y="316.5" font-size="13.5" font-weight="600" fill="#1d2329" text-anchor="end">godot</text>
<rect x="132" y="298" width="231.3" height="13" rx="2.5" fill="#e4572e"/>
<text x="356.3" y="308.0" font-size="12.5" font-weight="700" fill="#ffffff" text-anchor="end">16.6 s</text>
<rect x="132" y="314" width="40.4" height="13" rx="2.5" fill="#2a9d8f"/>
<text x="179.4" y="324.0" font-size="12.5" font-weight="700" fill="#2a9d8f" text-anchor="start">2.9 s</text>
<text x="120" y="356.5" font-size="13.5" font-weight="600" fill="#1d2329" text-anchor="end">rust</text>
<rect x="132" y="338" width="202.0" height="13" rx="2.5" fill="#e4572e"/>
<text x="327.0" y="348.0" font-size="12.5" font-weight="700" fill="#ffffff" text-anchor="end">14.5 s</text>
<rect x="132" y="354" width="107.3" height="13" rx="2.5" fill="#2a9d8f"/>
<text x="232.3" y="364.0" font-size="12.5" font-weight="700" fill="#ffffff" text-anchor="end">7.7 s</text>
<text x="120" y="396.5" font-size="13.5" font-weight="600" fill="#1d2329" text-anchor="end">kubernetes</text>
<rect x="132" y="378" width="178.3" height="13" rx="2.5" fill="#e4572e"/>
<text x="303.3" y="388.0" font-size="12.5" font-weight="700" fill="#ffffff" text-anchor="end">12.8 s</text>
<rect x="132" y="394" width="78.0" height="13" rx="2.5" fill="#2a9d8f"/>
<text x="203.0" y="404.0" font-size="12.5" font-weight="700" fill="#ffffff" text-anchor="end">5.6 s</text>
<text x="120" y="436.5" font-size="13.5" font-weight="600" fill="#1d2329" text-anchor="end">swift</text>
<rect x="132" y="418" width="167.2" height="13" rx="2.5" fill="#e4572e"/>
<text x="292.2" y="428.0" font-size="12.5" font-weight="700" fill="#ffffff" text-anchor="end">12 s</text>
<rect x="132" y="434" width="79.4" height="13" rx="2.5" fill="#2a9d8f"/>
<text x="204.4" y="444.0" font-size="12.5" font-weight="700" fill="#ffffff" text-anchor="end">5.7 s</text>
<text x="120" y="476.5" font-size="13.5" font-weight="600" fill="#1d2329" text-anchor="end">typescript</text>
<rect x="132" y="458" width="161.6" height="13" rx="2.5" fill="#e4572e"/>
<text x="286.6" y="468.0" font-size="12.5" font-weight="700" fill="#ffffff" text-anchor="end">11.6 s</text>
<rect x="132" y="474" width="30.7" height="13" rx="2.5" fill="#2a9d8f"/>
<text x="169.7" y="484.0" font-size="12.5" font-weight="700" fill="#2a9d8f" text-anchor="start">2.2 s</text>
<text x="120" y="516.5" font-size="13.5" font-weight="600" fill="#1d2329" text-anchor="end">pytorch</text>
<rect x="132" y="498" width="156.0" height="13" rx="2.5" fill="#e4572e"/>
<text x="281.0" y="508.0" font-size="12.5" font-weight="700" fill="#ffffff" text-anchor="end">11.2 s</text>
<rect x="132" y="514" width="79.4" height="13" rx="2.5" fill="#2a9d8f"/>
<text x="204.4" y="524.0" font-size="12.5" font-weight="700" fill="#ffffff" text-anchor="end">5.7 s</text>
<text x="120" y="556.5" font-size="13.5" font-weight="600" fill="#1d2329" text-anchor="end">flutter</text>
<rect x="132" y="538" width="132.4" height="13" rx="2.5" fill="#e4572e"/>
<text x="257.4" y="548.0" font-size="12.5" font-weight="700" fill="#ffffff" text-anchor="end">9.5 s</text>
<rect x="132" y="554" width="52.9" height="13" rx="2.5" fill="#2a9d8f"/>
<text x="191.9" y="564.0" font-size="12.5" font-weight="700" fill="#2a9d8f" text-anchor="start">3.8 s</text>
<text x="120" y="596.5" font-size="13.5" font-weight="600" fill="#1d2329" text-anchor="end">vscode</text>
<rect x="132" y="578" width="108.7" height="13" rx="2.5" fill="#e4572e"/>
<text x="233.7" y="588.0" font-size="12.5" font-weight="700" fill="#ffffff" text-anchor="end">7.8 s</text>
<rect x="132" y="594" width="76.6" height="13" rx="2.5" fill="#2a9d8f"/>
<text x="201.6" y="604.0" font-size="12.5" font-weight="700" fill="#ffffff" text-anchor="end">5.5 s</text>
<text x="120" y="636.5" font-size="13.5" font-weight="600" fill="#1d2329" text-anchor="end">cpython</text>
<rect x="132" y="618" width="96.1" height="13" rx="2.5" fill="#e4572e"/>
<text x="221.1" y="628.0" font-size="12.5" font-weight="700" fill="#ffffff" text-anchor="end">6.9 s</text>
<rect x="132" y="634" width="66.9" height="13" rx="2.5" fill="#2a9d8f"/>
<text x="191.9" y="644.0" font-size="12.5" font-weight="700" fill="#ffffff" text-anchor="end">4.8 s</text>
<text x="120" y="676.5" font-size="13.5" font-weight="600" fill="#1d2329" text-anchor="end">go</text>
<rect x="132" y="658" width="94.7" height="13" rx="2.5" fill="#e4572e"/>
<text x="219.7" y="668.0" font-size="12.5" font-weight="700" fill="#ffffff" text-anchor="end">6.8 s</text>
<rect x="132" y="674" width="44.6" height="13" rx="2.5" fill="#2a9d8f"/>
<text x="183.6" y="684.0" font-size="12.5" font-weight="700" fill="#2a9d8f" text-anchor="start">3.2 s</text>
<text x="120" y="716.5" font-size="13.5" font-weight="600" fill="#1d2329" text-anchor="end">angular</text>
<rect x="132" y="698" width="79.4" height="13" rx="2.5" fill="#e4572e"/>
<text x="204.4" y="708.0" font-size="12.5" font-weight="700" fill="#ffffff" text-anchor="end">5.7 s</text>
<rect x="132" y="714" width="30.7" height="13" rx="2.5" fill="#2a9d8f"/>
<text x="169.7" y="724.0" font-size="12.5" font-weight="700" fill="#2a9d8f" text-anchor="start">2.2 s</text>
<text x="120" y="756.5" font-size="13.5" font-weight="600" fill="#1d2329" text-anchor="end">deno</text>
<rect x="132" y="738" width="71.1" height="13" rx="2.5" fill="#e4572e"/>
<text x="196.1" y="748.0" font-size="12.5" font-weight="700" fill="#ffffff" text-anchor="end">5.1 s</text>
<rect x="132" y="754" width="32.0" height="13" rx="2.5" fill="#2a9d8f"/>
<text x="171.0" y="764.0" font-size="12.5" font-weight="700" fill="#2a9d8f" text-anchor="start">2.3 s</text>
<text x="120" y="796.5" font-size="13.5" font-weight="600" fill="#1d2329" text-anchor="end">react</text>
<rect x="132" y="778" width="44.6" height="13" rx="2.5" fill="#e4572e"/>
<text x="183.6" y="788.0" font-size="12.5" font-weight="700" fill="#e4572e" text-anchor="start">3.2 s</text>
<rect x="132" y="794" width="25.1" height="13" rx="2.5" fill="#2a9d8f"/>
<text x="164.1" y="804.0" font-size="12.5" font-weight="700" fill="#2a9d8f" text-anchor="start">1.8 s</text>
<text x="120" y="836.5" font-size="13.5" font-weight="600" fill="#1d2329" text-anchor="end">svelte</text>
<rect x="132" y="818" width="25.1" height="13" rx="2.5" fill="#e4572e"/>
<text x="164.1" y="828.0" font-size="12.5" font-weight="700" fill="#e4572e" text-anchor="start">1.8 s</text>
<rect x="132" y="834" width="19.5" height="13" rx="2.5" fill="#2a9d8f"/>
<text x="158.5" y="844.0" font-size="12.5" font-weight="700" fill="#2a9d8f" text-anchor="start">1.4 s</text>
<text x="120" y="876.5" font-size="13.5" font-weight="600" fill="#1d2329" text-anchor="end">redis</text>
<rect x="132" y="858" width="23.7" height="13" rx="2.5" fill="#e4572e"/>
<text x="162.7" y="868.0" font-size="12.5" font-weight="700" fill="#e4572e" text-anchor="start">1.7 s</text>
<rect x="132" y="874" width="19.5" height="13" rx="2.5" fill="#2a9d8f"/>
<text x="158.5" y="884.0" font-size="12.5" font-weight="700" fill="#2a9d8f" text-anchor="start">1.4 s</text>
<text x="120" y="916.5" font-size="13.5" font-weight="600" fill="#1d2329" text-anchor="end">vue</text>
<rect x="132" y="898" width="12.5" height="13" rx="2.5" fill="#e4572e"/>
<text x="151.5" y="908.0" font-size="12.5" font-weight="700" fill="#e4572e" text-anchor="start">0.9 s</text>
<rect x="132" y="914" width="11.1" height="13" rx="2.5" fill="#2a9d8f"/>
<text x="150.1" y="924.0" font-size="12.5" font-weight="700" fill="#2a9d8f" text-anchor="start">0.8 s</text>
</svg>