<svg xmlns="http://www.w3.org/2000/svg" width="900" height="590" font-family="-apple-system,Segoe UI,Helvetica,Arial,sans-serif" font-size="12">
<text x="150" y="22" font-size="15" font-weight="600">Time to a ready working copy (vs even a shallow clone) — lower is better</text>
<rect x="150" y="34" width="11" height="11" fill="#c0504d"/><text x="166" y="44">git clone --depth 1</text>
<rect x="350" y="34" width="11" height="11" fill="#4f81bd"/><text x="366" y="44">git lazy-mount</text>
<text x="144" y="69.0" text-anchor="end">llvm</text>
<rect x="150" y="58" width="560.0" height="9.0" fill="#c0504d"/>
<text x="714.0" y="66.0" fill="#555">39.6 s</text>
<rect x="150" y="67.0" width="326.7" height="9.0" fill="#4f81bd"/>
<text x="480.7" y="75.0" fill="#555">23.1 s</text>
<text x="144" y="95.0" text-anchor="end">node</text>
<rect x="150" y="84" width="306.9" height="9.0" fill="#c0504d"/>
<text x="460.9" y="92.0" fill="#555">21.7 s</text>
<rect x="150" y="93.0" width="124.4" height="9.0" fill="#4f81bd"/>
<text x="278.4" y="101.0" fill="#555">8.8 s</text>
<text x="144" y="121.0" text-anchor="end">elasticsearch</text>
<rect x="150" y="110" width="291.3" height="9.0" fill="#c0504d"/>
<text x="445.3" y="118.0" fill="#555">20.6 s</text>
<rect x="150" y="119.0" width="84.8" height="9.0" fill="#4f81bd"/>
<text x="238.8" y="127.0" fill="#555">6 s</text>
<text x="144" y="147.0" text-anchor="end">tensorflow</text>
<rect x="150" y="136" width="202.2" height="9.0" fill="#c0504d"/>
<text x="356.2" y="144.0" fill="#555">14.3 s</text>
<rect x="150" y="145.0" width="76.4" height="9.0" fill="#4f81bd"/>
<text x="230.4" y="153.0" fill="#555">5.4 s</text>
<text x="144" y="173.0" text-anchor="end">godot</text>
<rect x="150" y="162" width="189.5" height="9.0" fill="#c0504d"/>
<text x="343.5" y="170.0" fill="#555">13.4 s</text>
<rect x="150" y="171.0" width="82.0" height="9.0" fill="#4f81bd"/>
<text x="236.0" y="179.0" fill="#555">5.8 s</text>
<text x="144" y="199.0" text-anchor="end">typescript</text>
<rect x="150" y="188" width="165.5" height="9.0" fill="#c0504d"/>
<text x="319.5" y="196.0" fill="#555">11.7 s</text>
<rect x="150" y="197.0" width="41.0" height="9.0" fill="#4f81bd"/>
<text x="195.0" y="205.0" fill="#555">2.9 s</text>
<text x="144" y="225.0" text-anchor="end">rust</text>
<rect x="150" y="214" width="145.7" height="9.0" fill="#c0504d"/>
<text x="299.7" y="222.0" fill="#555">10.3 s</text>
<rect x="150" y="223.0" width="239.0" height="9.0" fill="#4f81bd"/>
<text x="393.0" y="231.0" fill="#555">16.9 s</text>
<text x="144" y="251.0" text-anchor="end">kubernetes</text>
<rect x="150" y="240" width="140.0" height="9.0" fill="#c0504d"/>
<text x="294.0" y="248.0" fill="#555">9.9 s</text>
<rect x="150" y="249.0" width="200.8" height="9.0" fill="#4f81bd"/>
<text x="354.8" y="257.0" fill="#555">14.2 s</text>
<text x="144" y="277.0" text-anchor="end">swift</text>
<rect x="150" y="266" width="120.2" height="9.0" fill="#c0504d"/>
<text x="274.2" y="274.0" fill="#555">8.5 s</text>
<rect x="150" y="275.0" width="87.7" height="9.0" fill="#4f81bd"/>
<text x="241.7" y="283.0" fill="#555">6.2 s</text>
<text x="144" y="303.0" text-anchor="end">flutter</text>
<rect x="150" y="292" width="101.8" height="9.0" fill="#c0504d"/>
<text x="255.8" y="300.0" fill="#555">7.2 s</text>
<rect x="150" y="301.0" width="89.1" height="9.0" fill="#4f81bd"/>
<text x="243.1" y="309.0" fill="#555">6.3 s</text>
<text x="144" y="329.0" text-anchor="end">cpython</text>
<rect x="150" y="318" width="82.0" height="9.0" fill="#c0504d"/>
<text x="236.0" y="326.0" fill="#555">5.8 s</text>
<rect x="150" y="327.0" width="93.3" height="9.0" fill="#4f81bd"/>
<text x="247.3" y="335.0" fill="#555">6.6 s</text>
<text x="144" y="355.0" text-anchor="end">vscode</text>
<rect x="150" y="344" width="72.1" height="9.0" fill="#c0504d"/>
<text x="226.1" y="352.0" fill="#555">5.1 s</text>
<rect x="150" y="353.0" width="107.5" height="9.0" fill="#4f81bd"/>
<text x="261.5" y="361.0" fill="#555">7.6 s</text>
<text x="144" y="381.0" text-anchor="end">go</text>
<rect x="150" y="370" width="67.9" height="9.0" fill="#c0504d"/>
<text x="221.9" y="378.0" fill="#555">4.8 s</text>
<rect x="150" y="379.0" width="82.0" height="9.0" fill="#4f81bd"/>
<text x="236.0" y="387.0" fill="#555">5.8 s</text>
<text x="144" y="407.0" text-anchor="end">angular</text>
<rect x="150" y="396" width="65.1" height="9.0" fill="#c0504d"/>
<text x="219.1" y="404.0" fill="#555">4.6 s</text>
<rect x="150" y="405.0" width="43.8" height="9.0" fill="#4f81bd"/>
<text x="197.8" y="413.0" fill="#555">3.1 s</text>
<text x="144" y="433.0" text-anchor="end">pytorch</text>
<rect x="150" y="422" width="62.2" height="9.0" fill="#c0504d"/>
<text x="216.2" y="430.0" fill="#555">4.4 s</text>
<rect x="150" y="431.0" width="118.8" height="9.0" fill="#4f81bd"/>
<text x="272.8" y="439.0" fill="#555">8.4 s</text>
<text x="144" y="459.0" text-anchor="end">deno</text>
<rect x="150" y="448" width="59.4" height="9.0" fill="#c0504d"/>
<text x="213.4" y="456.0" fill="#555">4.2 s</text>
<rect x="150" y="457.0" width="52.3" height="9.0" fill="#4f81bd"/>
<text x="206.3" y="465.0" fill="#555">3.7 s</text>
<text x="144" y="485.0" text-anchor="end">react</text>
<rect x="150" y="474" width="42.4" height="9.0" fill="#c0504d"/>
<text x="196.4" y="482.0" fill="#555">3 s</text>
<rect x="150" y="483.0" width="42.4" height="9.0" fill="#4f81bd"/>
<text x="196.4" y="491.0" fill="#555">3 s</text>
<text x="144" y="511.0" text-anchor="end">svelte</text>
<rect x="150" y="500" width="19.8" height="9.0" fill="#c0504d"/>
<text x="173.8" y="508.0" fill="#555">1.4 s</text>
<rect x="150" y="509.0" width="38.2" height="9.0" fill="#4f81bd"/>
<text x="192.2" y="517.0" fill="#555">2.7 s</text>
<text x="144" y="537.0" text-anchor="end">redis</text>
<rect x="150" y="526" width="15.6" height="9.0" fill="#c0504d"/>
<text x="169.6" y="534.0" fill="#555">1.1 s</text>
<rect x="150" y="535.0" width="38.2" height="9.0" fill="#4f81bd"/>
<text x="192.2" y="543.0" fill="#555">2.7 s</text>
<text x="144" y="563.0" text-anchor="end">vue</text>
<rect x="150" y="552" width="14.1" height="9.0" fill="#c0504d"/>
<text x="168.1" y="560.0" fill="#555">1 s</text>
<rect x="150" y="561.0" width="22.6" height="9.0" fill="#4f81bd"/>
<text x="176.6" y="569.0" fill="#555">1.6 s</text>
</svg>