<svg xmlns="http://www.w3.org/2000/svg" width="960" height="996" viewBox="0 0 960 996" font-family="-apple-system,BlinkMacSystemFont,'Segoe UI',Roboto,Helvetica,Arial,sans-serif">
<rect width="960" height="996" fill="#ffffff"/>
<text x="132" y="40" font-size="23" font-weight="700" fill="#1d2329">Time to a ready working copy — lower is better</text>
<text x="132" y="64" font-size="13.5" fill="#6b7782">Wall-clock seconds until the checkout is usable, per repository (20 large open-source repos).</text>
<rect x="132" y="79" width="15" height="15" rx="3" fill="#e4572e"/>
<text x="153" y="91" font-size="14" font-weight="600" fill="#1d2329">git clone --depth 1</text>
<rect x="344" y="79" width="15" height="15" rx="3" fill="#2a9d8f"/>
<text x="365" y="91" font-size="14" font-weight="600" fill="#1d2329">git lazy-mount</text>
<line x1="132.0" y1="122" x2="132.0" y2="932" stroke="#e7ebef" stroke-width="1"/>
<text x="132.0" y="954" font-size="12" fill="#6b7782" text-anchor="middle">0</text>
<line x1="271.3" y1="122" x2="271.3" y2="932" stroke="#e7ebef" stroke-width="1"/>
<text x="271.3" y="954" font-size="12" fill="#6b7782" text-anchor="middle">10</text>
<line x1="410.6" y1="122" x2="410.6" y2="932" stroke="#e7ebef" stroke-width="1"/>
<text x="410.6" y="954" font-size="12" fill="#6b7782" text-anchor="middle">20</text>
<line x1="550.0" y1="122" x2="550.0" y2="932" stroke="#e7ebef" stroke-width="1"/>
<text x="550.0" y="954" font-size="12" fill="#6b7782" text-anchor="middle">30</text>
<line x1="675.8" y1="122" x2="675.8" y2="932" stroke="#e7ebef" stroke-width="1"/>
<text x="675.8" y="954" font-size="12" fill="#6b7782" text-anchor="middle">60</text>
<line x1="775.6" y1="122" x2="775.6" y2="932" stroke="#e7ebef" stroke-width="1"/>
<text x="775.6" y="954" font-size="12" fill="#6b7782" text-anchor="middle">90</text>
<line x1="875.4" y1="122" x2="875.4" y2="932" stroke="#e7ebef" stroke-width="1"/>
<text x="875.4" y="954" font-size="12" fill="#6b7782" text-anchor="middle">120</text>
<line x1="132.0" y1="122" x2="132.0" y2="932" stroke="#cfd6dc" stroke-width="1"/>
<rect x="550.0" y="122" width="26" height="810" fill="#ffffff"/>
<path d="M555.0 116 l8 12 M563.0 116 l8 12" stroke="#54606b" stroke-width="1.6" fill="none"/>
<path d="M555.0 926 l8 12 M563.0 926 l8 12" stroke="#54606b" stroke-width="1.6" fill="none"/>
<text x="563.0" y="116" font-size="11" fill="#6b7782" text-anchor="middle">break</text>
<text x="580.0" y="972" font-size="11.5" fill="#6b7782">scale compressed above 30 s</text>
<text x="132" y="972" font-size="11.5" fill="#6b7782">detail scale (0–30 s)</text>
<text x="120" y="156.5" font-size="13.5" font-weight="600" fill="#1d2329" text-anchor="end">elasticsearch</text>
<rect x="132" y="138" width="780.4" height="13" rx="2.5" fill="#e4572e"/>
<text x="905.4" y="148.0" font-size="12.5" font-weight="700" fill="#ffffff" text-anchor="end">131.1 s</text>
<rect x="132" y="154" width="96.1" height="13" rx="2.5" fill="#2a9d8f"/>
<text x="221.1" y="164.0" font-size="12.5" font-weight="700" fill="#ffffff" text-anchor="end">6.9 s</text>
<text x="120" y="196.5" font-size="13.5" font-weight="600" fill="#1d2329" text-anchor="end">redis</text>
<rect x="132" y="178" width="780.0" height="13" rx="2.5" fill="#e4572e"/>
<text x="905.0" y="188.0" font-size="12.5" font-weight="700" fill="#ffffff" text-anchor="end">131 s</text>
<rect x="132" y="194" width="303.7" height="13" rx="2.5" fill="#2a9d8f"/>
<text x="428.7" y="204.0" font-size="12.5" font-weight="700" fill="#ffffff" text-anchor="end">21.8 s</text>
<text x="120" y="236.5" font-size="13.5" font-weight="600" fill="#1d2329" text-anchor="end">tensorflow</text>
<rect x="132" y="218" width="780.0" height="13" rx="2.5" fill="#e4572e"/>
<text x="905.0" y="228.0" font-size="12.5" font-weight="700" fill="#ffffff" text-anchor="end">131 s</text>
<rect x="132" y="234" width="69.7" height="13" rx="2.5" fill="#2a9d8f"/>
<text x="194.7" y="244.0" font-size="12.5" font-weight="700" fill="#ffffff" text-anchor="end">5 s</text>
<text x="120" y="276.5" font-size="13.5" font-weight="600" fill="#1d2329" text-anchor="end">llvm</text>
<rect x="132" y="258" width="550.4" height="13" rx="2.5" fill="#e4572e"/>
<text x="675.4" y="268.0" font-size="12.5" font-weight="700" fill="#ffffff" text-anchor="end">62 s</text>
<rect x="132" y="274" width="260.5" height="13" rx="2.5" fill="#2a9d8f"/>
<text x="385.5" y="284.0" font-size="12.5" font-weight="700" fill="#ffffff" text-anchor="end">18.7 s</text>
<text x="120" y="316.5" font-size="13.5" font-weight="600" fill="#1d2329" text-anchor="end">godot</text>
<rect x="132" y="298" width="448.3" height="13" rx="2.5" fill="#e4572e"/>
<text x="573.3" y="308.0" font-size="12.5" font-weight="700" fill="#ffffff" text-anchor="end">31.3 s</text>
<rect x="132" y="314" width="307.9" height="13" rx="2.5" fill="#2a9d8f"/>
<text x="432.9" y="324.0" font-size="12.5" font-weight="700" fill="#ffffff" text-anchor="end">22.1 s</text>
<text x="120" y="356.5" font-size="13.5" font-weight="600" fill="#1d2329" text-anchor="end">node</text>
<rect x="132" y="338" width="352.5" height="13" rx="2.5" fill="#e4572e"/>
<text x="477.5" y="348.0" font-size="12.5" font-weight="700" fill="#ffffff" text-anchor="end">25.3 s</text>
<rect x="132" y="354" width="78.0" height="13" rx="2.5" fill="#2a9d8f"/>
<text x="203.0" y="364.0" font-size="12.5" font-weight="700" fill="#ffffff" text-anchor="end">5.6 s</text>
<text x="120" y="396.5" font-size="13.5" font-weight="600" fill="#1d2329" text-anchor="end">typescript</text>
<rect x="132" y="378" width="236.8" height="13" rx="2.5" fill="#e4572e"/>
<text x="361.8" y="388.0" font-size="12.5" font-weight="700" fill="#ffffff" text-anchor="end">17 s</text>
<rect x="132" y="394" width="34.8" height="13" rx="2.5" fill="#2a9d8f"/>
<text x="173.8" y="404.0" font-size="12.5" font-weight="700" fill="#2a9d8f" text-anchor="start">2.5 s</text>
<text x="120" y="436.5" font-size="13.5" font-weight="600" fill="#1d2329" text-anchor="end">rust</text>
<rect x="132" y="418" width="193.7" height="13" rx="2.5" fill="#e4572e"/>
<text x="318.7" y="428.0" font-size="12.5" font-weight="700" fill="#ffffff" text-anchor="end">13.9 s</text>
<rect x="132" y="434" width="168.6" height="13" rx="2.5" fill="#2a9d8f"/>
<text x="293.6" y="444.0" font-size="12.5" font-weight="700" fill="#ffffff" text-anchor="end">12.1 s</text>
<text x="120" y="476.5" font-size="13.5" font-weight="600" fill="#1d2329" text-anchor="end">kubernetes</text>
<rect x="132" y="458" width="182.5" height="13" rx="2.5" fill="#e4572e"/>
<text x="307.5" y="468.0" font-size="12.5" font-weight="700" fill="#ffffff" text-anchor="end">13.1 s</text>
<rect x="132" y="474" width="161.6" height="13" rx="2.5" fill="#2a9d8f"/>
<text x="286.6" y="484.0" font-size="12.5" font-weight="700" fill="#ffffff" text-anchor="end">11.6 s</text>
<text x="120" y="516.5" font-size="13.5" font-weight="600" fill="#1d2329" text-anchor="end">pytorch</text>
<rect x="132" y="498" width="164.4" height="13" rx="2.5" fill="#e4572e"/>
<text x="289.4" y="508.0" font-size="12.5" font-weight="700" fill="#ffffff" text-anchor="end">11.8 s</text>
<rect x="132" y="514" width="83.6" height="13" rx="2.5" fill="#2a9d8f"/>
<text x="208.6" y="524.0" font-size="12.5" font-weight="700" fill="#ffffff" text-anchor="end">6 s</text>
<text x="120" y="556.5" font-size="13.5" font-weight="600" fill="#1d2329" text-anchor="end">swift</text>
<rect x="132" y="538" width="158.8" height="13" rx="2.5" fill="#e4572e"/>
<text x="283.8" y="548.0" font-size="12.5" font-weight="700" fill="#ffffff" text-anchor="end">11.4 s</text>
<rect x="132" y="554" width="298.1" height="13" rx="2.5" fill="#2a9d8f"/>
<text x="423.1" y="564.0" font-size="12.5" font-weight="700" fill="#ffffff" text-anchor="end">21.4 s</text>
<text x="120" y="596.5" font-size="13.5" font-weight="600" fill="#1d2329" text-anchor="end">flutter</text>
<rect x="132" y="578" width="126.8" height="13" rx="2.5" fill="#e4572e"/>
<text x="251.8" y="588.0" font-size="12.5" font-weight="700" fill="#ffffff" text-anchor="end">9.1 s</text>
<rect x="132" y="594" width="71.1" height="13" rx="2.5" fill="#2a9d8f"/>
<text x="196.1" y="604.0" font-size="12.5" font-weight="700" fill="#ffffff" text-anchor="end">5.1 s</text>
<text x="120" y="636.5" font-size="13.5" font-weight="600" fill="#1d2329" text-anchor="end">cpython</text>
<rect x="132" y="618" width="93.3" height="13" rx="2.5" fill="#e4572e"/>
<text x="218.3" y="628.0" font-size="12.5" font-weight="700" fill="#ffffff" text-anchor="end">6.7 s</text>
<rect x="132" y="634" width="64.1" height="13" rx="2.5" fill="#2a9d8f"/>
<text x="189.1" y="644.0" font-size="12.5" font-weight="700" fill="#ffffff" text-anchor="end">4.6 s</text>
<text x="120" y="676.5" font-size="13.5" font-weight="600" fill="#1d2329" text-anchor="end">go</text>
<rect x="132" y="658" width="92.0" height="13" rx="2.5" fill="#e4572e"/>
<text x="217.0" y="668.0" font-size="12.5" font-weight="700" fill="#ffffff" text-anchor="end">6.6 s</text>
<rect x="132" y="674" width="43.2" height="13" rx="2.5" fill="#2a9d8f"/>
<text x="182.2" y="684.0" font-size="12.5" font-weight="700" fill="#2a9d8f" text-anchor="start">3.1 s</text>
<text x="120" y="716.5" font-size="13.5" font-weight="600" fill="#1d2329" text-anchor="end">vscode</text>
<rect x="132" y="698" width="85.0" height="13" rx="2.5" fill="#e4572e"/>
<text x="210.0" y="708.0" font-size="12.5" font-weight="700" fill="#ffffff" text-anchor="end">6.1 s</text>
<rect x="132" y="714" width="90.6" height="13" rx="2.5" fill="#2a9d8f"/>
<text x="215.6" y="724.0" font-size="12.5" font-weight="700" fill="#ffffff" text-anchor="end">6.5 s</text>
<text x="120" y="756.5" font-size="13.5" font-weight="600" fill="#1d2329" text-anchor="end">angular</text>
<rect x="132" y="738" width="82.2" height="13" rx="2.5" fill="#e4572e"/>
<text x="207.2" y="748.0" font-size="12.5" font-weight="700" fill="#ffffff" text-anchor="end">5.9 s</text>
<rect x="132" y="754" width="76.6" height="13" rx="2.5" fill="#2a9d8f"/>
<text x="201.6" y="764.0" font-size="12.5" font-weight="700" fill="#ffffff" text-anchor="end">5.5 s</text>
<text x="120" y="796.5" font-size="13.5" font-weight="600" fill="#1d2329" text-anchor="end">deno</text>
<rect x="132" y="778" width="71.1" height="13" rx="2.5" fill="#e4572e"/>
<text x="196.1" y="788.0" font-size="12.5" font-weight="700" fill="#ffffff" text-anchor="end">5.1 s</text>
<rect x="132" y="794" width="80.8" height="13" rx="2.5" fill="#2a9d8f"/>
<text x="205.8" y="804.0" font-size="12.5" font-weight="700" fill="#ffffff" text-anchor="end">5.8 s</text>
<text x="120" y="836.5" font-size="13.5" font-weight="600" fill="#1d2329" text-anchor="end">react</text>
<rect x="132" y="818" width="44.6" height="13" rx="2.5" fill="#e4572e"/>
<text x="183.6" y="828.0" font-size="12.5" font-weight="700" fill="#e4572e" text-anchor="start">3.2 s</text>
<rect x="132" y="834" width="29.3" height="13" rx="2.5" fill="#2a9d8f"/>
<text x="168.3" y="844.0" font-size="12.5" font-weight="700" fill="#2a9d8f" text-anchor="start">2.1 s</text>
<text x="120" y="876.5" font-size="13.5" font-weight="600" fill="#1d2329" text-anchor="end">svelte</text>
<rect x="132" y="858" width="26.5" height="13" rx="2.5" fill="#e4572e"/>
<text x="165.5" y="868.0" font-size="12.5" font-weight="700" fill="#e4572e" text-anchor="start">1.9 s</text>
<rect x="132" y="874" width="124.0" height="13" rx="2.5" fill="#2a9d8f"/>
<text x="249.0" y="884.0" font-size="12.5" font-weight="700" fill="#ffffff" text-anchor="end">8.9 s</text>
<text x="120" y="916.5" font-size="13.5" font-weight="600" fill="#1d2329" text-anchor="end">vue</text>
<rect x="132" y="898" width="13.9" height="13" rx="2.5" fill="#e4572e"/>
<text x="152.9" y="908.0" font-size="12.5" font-weight="700" fill="#e4572e" text-anchor="start">1 s</text>
<rect x="132" y="914" width="15.3" height="13" rx="2.5" fill="#2a9d8f"/>
<text x="154.3" y="924.0" font-size="12.5" font-weight="700" fill="#2a9d8f" text-anchor="start">1.1 s</text>
</svg>